<svg xmlns="http://www.w3.org/2000/svg" width="96" height="96" viewBox="0 0 96 96">
  <g id="badminton" transform="translate(-760.5 -3544)">
    <g id="Ellipse_56" data-name="Ellipse 56" transform="translate(760.5 3544)" fill="#151515" stroke="red" stroke-width="2">
      <circle cx="48" cy="48" r="48" stroke="none"/>
      <circle class="tog-circle" cx="48" cy="48" r="47" fill="none"/>
    </g>
    <g id="Group_1146" data-name="Group 1146" transform="matrix(0.643, 0.766, -0.766, 0.643, 999.913, 3901.52)">
      <path id="Path_1582" data-name="Path 1582" d="M-352.288-44.666c-.066.43-.135.86-.2,1.291-.03.21-.045.422-.072.676h3.716c.217-.419.34-.47.926-.344l-.132.52c.333.056.663.106.991.17a4.1,4.1,0,0,1,.444.142l.7-2.374-1.515,1.059-.069-.031c.062-.284.108-.573.189-.851,1.283-4.372,2.551-8.747,3.862-13.11,1.155-3.842,2.358-7.67,3.54-11.5.02-.065.046-.127.081-.224.066.087.119.151.166.219,1.1,1.585,2.2,3.169,3.292,4.76a1.128,1.128,0,0,1,.148.482c.025.192-.008.391.008.585a9.186,9.186,0,0,1-.641,3.96,48.23,48.23,0,0,1-4,8.773,22.947,22.947,0,0,1-3.781,4.743.745.745,0,0,0-.193.314q-2.114,7.079-4.2,14.165a2.868,2.868,0,0,0,.066,1.025c.082.793.172,1.586.262,2.408h-18.555c.229-.91.447-1.815.687-2.715a1.558,1.558,0,0,0-.023-.934q-2.308-7.064-4.594-14.135a.772.772,0,0,0-.167-.3A30.449,30.449,0,0,1-378.03-56.56a36.671,36.671,0,0,1-1.253-4.091,12.661,12.661,0,0,1-.15-2.062,3.2,3.2,0,0,1,.711-2.265c.985-1.318,1.89-2.7,2.829-4.049.044-.063.093-.123.19-.248l6.884,25.287-.1.061-1.158-.8.986,2.789,1.835-.614-.7-2.194.3-.062-7.66-24.465,1.416.541c1.2.459,2.4.914,3.59,1.382a.337.337,0,0,0,.428-.091q1.782-1.8,3.578-3.583c.072-.072.146-.141.264-.255l2.8,26.486-2.377-2.39c-.313.7-.564,1.32-.865,1.915a1.365,1.365,0,0,0-.076,1.245c.156.363.23.762.357,1.138.026.077.13.181.2.182.966.009,1.931,0,2.9,0,.017,0,.034-.016.071-.033l-.178-1.539h1.2l.149,1.561h3.462v-1.964h.81v1.957h3.9c.046-.462.1-.924.134-1.387a.238.238,0,0,1,.207-.259c.354-.088.7-.2,1.054-.3ZM-361.6-31.009l-.631-5.2L-364.14-36l1.462,4.881c-.792.148-.841.12-1.074-.595-.012-.037-.023-.074-.035-.111L-365.1-35.87a4.933,4.933,0,0,0-1.7.426l1.568,4.435Zm7.408-6.052.4-4.406h-3.763v4.406Zm-.55,6.041.434-4.8h-3.249v4.8Zm4.125-5.659,1.434-4.782h-3.52l-.529,4.482Zm-7.78-4.785h-3.348l.4,4.4h2.944Zm.007,10.447a.79.79,0,0,0,.021-.114c0-1.511,0-3.022.007-4.533,0-.2-.092-.24-.262-.256-.756-.07-1.511-.15-2.266-.223-.119-.011-.241,0-.369,0l.468,5.127Zm-3.941-6.028-.536-4.417h-2.908c.43,1.426.85,2.828,1.279,4.228.023.074.112.18.173.181C-363.676-37.039-363.025-37.044-362.333-37.044Zm8.956,1.266L-353.939-31c.228,0,.44,0,.652,0,.319-.006.718.094.935-.059.2-.143.213-.559.3-.856.358-1.187.714-2.375,1.079-3.591ZM-365.5-37.1l-1.415-4.373-1.883.378,1.643,4.641Zm18.666-4.37h-1.534l-1.428,4.919,1.435.284Zm-1.747,5.924a1.662,1.662,0,0,1-.348.091,8.535,8.535,0,0,1-.934,0c-.213-.015-.285.077-.336.261-.253.905-.516,1.808-.777,2.712-.139.482-.281.962-.43,1.476.48,0,.918.008,1.354-.009.069,0,.168-.111.193-.19.16-.5.3-1,.451-1.5C-349.125-33.662-348.847-34.617-348.577-35.541Z" transform="translate(0 -6.382)" fill="none" stroke="#d0ad6a" stroke-width="1.5"/>
      <path id="Path_1583" data-name="Path 1583" d="M-171.316,705.067h.417l18.141.006c.407,0,.4,0,.411.413a13.629,13.629,0,0,1-.876,5.525,8.553,8.553,0,0,1-4.135,4.725,7.778,7.778,0,0,1-2.031.606,15.319,15.319,0,0,1-5.116-.051,5.745,5.745,0,0,1-2.762-1.381,10.635,10.635,0,0,1-3.892-6.076,10.01,10.01,0,0,1-.152-1.768C-171.335,706.414-171.316,705.761-171.316,705.067Z" transform="translate(-195.923 -737.228)" fill="none" stroke="#d0ad6a" stroke-width="1.5"/>
      <path id="Path_1584" data-name="Path 1584" d="M83.92-38.029c.038-.484.067-.969.117-1.452.145-1.395.3-2.789.448-4.183.146-1.346.3-2.691.441-4.037.128-1.181.251-2.363.378-3.544q.187-1.743.377-3.486t.382-3.515q.2-1.8.39-3.6.121-1.118.245-2.236c0-.036.015-.072.03-.144.561.457,1.1.9,1.645,1.341.868.71,1.74,1.415,2.6,2.135a.336.336,0,0,0,.422.019l3.848-1.75c.088-.04.177-.077.331-.144L87.516-36.865,86.3-39.673c-.727.485-1.43.951-2.13,1.422a2.555,2.555,0,0,0-.252.221Z" transform="translate(-436.208 -13.018)" fill="none" stroke="#d0ad6a" stroke-width="1.5"/>
      <path id="Path_1585" data-name="Path 1585" d="M-8.657-50.785l-1.575-3.132-2.41,2.42c-.135-8.878-.269-17.7-.4-26.56.116.057.209.1.3.147,1.3.706,2.6,1.41,3.894,2.125a.5.5,0,0,0,.511.015c1-.457,2.005-.9,3.009-1.343.106-.047.213-.09.352-.148L-8.6-50.79Z" transform="translate(-344.925)" fill="none" stroke="#d0ad6a" stroke-width="1.5"/>
      <path id="Path_1586" data-name="Path 1586" d="M-143.8-77.309l.9.445c.975.486,1.951.969,2.922,1.463a.334.334,0,0,0,.415-.036c.922-.7,1.853-1.4,2.781-2.09.06-.045.123-.084.217-.148v26.863l-1.938-1.98-1.664,2.062Z" transform="translate(-221.833 -0.36)" fill="none" stroke="#d0ad6a" stroke-width="1.5"/>
    </g>
  </g>
</svg>
