<svg xmlns="http://www.w3.org/2000/svg" width="96" height="96" viewBox="0 0 96 96">
  <g id="basketball" transform="translate(-760.5 -3784)">
    <g id="Ellipse_58" data-name="Ellipse 58" transform="translate(760.5 3784)" fill="#151515" stroke="red" stroke-width="2">
      <circle cx="48" cy="48" r="48" stroke="none"/>
      <circle class="tog-circle" cx="48" cy="48" r="47" fill="none"/>
    </g>
    <g id="Group_1148" data-name="Group 1148" transform="translate(1461.217 2643.179)">
      <path id="Path_1590" data-name="Path 1590" d="M-375.119,1183.37h-6.964v-7.817h-1.974c-.348,0-.7.02-1.045,0a1.117,1.117,0,0,0-1.209.574,2.316,2.316,0,0,1-2.231,1.043.9.9,0,0,0-.951.526,59.6,59.6,0,0,0-6.688,18.21,71.408,71.408,0,0,0-1.438,16.279c0,.055,0,.11,0,.165a.645.645,0,0,1-.447.781c-.393.113-.595-.146-.789-.44-.607-.916-1.227-1.823-1.846-2.732-.1-.148-.22-.285-.4-.519-.846,1.026-1.672,2-2.463,3-.6.753-.868.78-1.485.059l-2.34-2.735c-.574.721-1.128,1.416-1.68,2.112-.217.273-.42.556-.647.821-.361.421-.666.445-1.062.047-.994-1-1.971-2.02-3.012-3.091-.4.574-.8,1.148-1.2,1.726a11.855,11.855,0,0,1-.841,1.219,1.115,1.115,0,0,1-.76.359c-.377-.013-.42-.372-.427-.708-.058-2.565-.01-5.14-.21-7.694-.759-9.662-3.243-18.769-8.894-26.82a1.139,1.139,0,0,0-1.066-.566,2.554,2.554,0,0,1-2.617-2.6,2.562,2.562,0,0,1,2.666-2.549q19.34,0,38.681-.006a2.67,2.67,0,0,1,2.228,1.086.684.684,0,0,0,.413.283c1.208.022,2.417.013,3.689.013v-8.867h7.011Zm-5.03-16.911V1181.4h3.086v-14.937Zm-27.63,8.993h19.036c.147,0,.294.006.44,0a.8.8,0,0,0,.814-.741.8.8,0,0,0-.572-.945,2.45,2.45,0,0,0-.756-.082q-18.981-.006-37.962,0a2.3,2.3,0,0,0-.8.112.781.781,0,0,0-.508.931.805.805,0,0,0,.781.721c.164.013.33.006.495.006Zm.065,15.158c.881-1.036,1.741-2.035,2.58-3.052a.6.6,0,0,0,.064-.473c-.292-1-.678-1.971-.9-2.982-.479-2.16-.875-4.338-1.318-6.506a1.484,1.484,0,0,0-.251-.416c-.1.144-.264.275-.3.435-.168.674-.3,1.357-.445,2.036-.564,2.6-.776,5.286-2.056,7.709Zm7.051-.146c.7-.918,1.331-1.786,2-2.625a1.09,1.09,0,0,0,.228-1.082,11.3,11.3,0,0,1-.282-1.95c-.2-2.371-.362-4.745-.562-7.115a.686.686,0,0,0-.334-.5c-.356-.14-.453.162-.528.439q-.43,1.587-.867,3.172c-.606,2.2-1.005,4.462-2.2,6.461a.429.429,0,0,0,.084.375C-402.326,1188.572-401.515,1189.49-400.664,1190.463Zm-14.218.133c.885-1.064,1.7-2.028,2.49-3.014a.62.62,0,0,0,.036-.513c-.316-.835-.734-1.638-.985-2.492-.628-2.139-1.183-4.3-1.776-6.448-.089-.323-.225-.633-.395-1.1a3.527,3.527,0,0,0-.165.506q-.333,2.916-.656,5.834a8.986,8.986,0,0,1-.852,3.712.439.439,0,0,0,.039.385C-416.416,1188.494-415.671,1189.51-414.882,1190.6Zm-1.961-13.387h-6.594c2.241,2.763,3.493,6.014,5.339,8.948C-417.252,1183.233-417.576,1180.174-416.842,1177.209Zm19.46,8.908.241.06,4.912-8.975h-5.785Zm-13.941.38a43.808,43.808,0,0,0,2.212-9.29h-5.034C-413.028,1180.25-412.693,1183.478-411.323,1186.5Zm5.2-9.3c.746,3.047,1.006,6.125,2.063,9.046,1.358-2.886,1.848-6.012,2.78-9.046Zm5.639,22.351,3.073-3.862-3.118-3.38-2.843,3.635Zm-10.777-11.382c-.908,1.088-1.789,2.134-2.651,3.2a.438.438,0,0,0-.009.416c.892,1.13,1.8,2.245,2.75,3.413l2.694-3.581Zm-3.653,4.363c-.729.882-1.395,1.73-2.11,2.534a.729.729,0,0,0-.013,1.064c.5.653,1.011,1.3,1.521,1.946.378.479.763.954,1.174,1.466l2.429-3.333Zm13.629,7.977-2.865-3.577-2.659,3.4,2.842,3.388Zm-6.335-1.128,2.679-3.425-2.741-3.369-2.674,3.566Zm.7-7.789,2.755,3.378,2.75-3.525-2.786-3.123Zm-.5,16.258,2.641-3.183-2.809-3.353-2.546,3.328Zm-3.685-10.682c-.787,1.08-1.54,2.092-2.258,3.127a.608.608,0,0,0,.079.545c.477.625.989,1.223,1.493,1.827.275.329.559.651.86,1l2.533-3.3Zm7.918,7.519,2.24,2.855c.743-.785,1.5-1.486,2.117-2.29a1.361,1.361,0,0,0,.126-1.223,29.7,29.7,0,0,0-1.812-2.544Zm-10.623,2.869,2.11-2.869-2.6-3.129a10.964,10.964,0,0,0-1.583,2.2,2.468,2.468,0,0,0,.164,1.954A10.411,10.411,0,0,0-413.806,1207.554Zm.753,1.045,2.719,2.9,2.129-2.693-2.681-3.159Zm9.061-2.966-2.616,3.157,2.24,2.612,2.56-2.98Zm6.295-17.061-2.086,2.758,2.687,2.868c.342-1.3.678-2.542.988-3.793.025-.1-.1-.261-.188-.359C-396.741,1189.564-397.2,1189.093-397.7,1188.572Zm-17.99,2.973-2.284-3.087c-.579.8-1.009,1.559-.485,2.528a4.958,4.958,0,0,1,.311,1.049c.162.588.32,1.177.5,1.856Zm24.48-13.307-.138-.071c-.508.893-1.022,1.783-1.522,2.68a44.505,44.505,0,0,1-3.782,6.535.366.366,0,0,0-.052.33c.3.414.627.807,1.015,1.294A58.177,58.177,0,0,1-391.207,1178.237Zm-28.146,9.994c.457-.549.6-1,.086-1.532a4.207,4.207,0,0,1-.586-.987c-.826-1.548-1.619-3.115-2.48-4.644-.576-1.022-1.248-1.991-1.876-2.984l-.142.084A46.673,46.673,0,0,1-419.353,1188.231Zm21.484,10-1.855,2.3,1.3,1.68Zm-18.337,3.83,1.111-1.5-1.479-1.844-.088.034Zm16,6.476,1.345,1.88v-3.294Zm-14.407.156-1.141-1.217v2.838Z" transform="translate(-247.876)" fill="#d0ad6a"/>
    </g>
  </g>
</svg>
