<svg xmlns="http://www.w3.org/2000/svg" width="61.574" height="66.463" viewBox="0 0 61.574 66.463">
  <g id="Group_839" data-name="Group 839" transform="translate(-522.875 -1907.254)">
    <g id="Group_478" data-name="Group 478" transform="translate(536.286 1920.357)">
      <g id="Group_477" data-name="Group 477">
        <path id="Path_547" data-name="Path 547" d="M104.5,85.12A17.388,17.388,0,0,0,87.12,102.5a19.778,19.778,0,0,0,8.214,15.775V130.82a1.262,1.262,0,0,0,.086.419v.1a1.319,1.319,0,0,0,.074.148l4.335,6.453a1.235,1.235,0,0,0,1.022.542h7.167a1.235,1.235,0,0,0,1.022-.542l4.335-6.453a1.32,1.32,0,0,0,.074-.148v-.1a1.263,1.263,0,0,0,.086-.419V118.271a19.778,19.778,0,0,0,8.214-15.775A17.388,17.388,0,0,0,104.5,85.12Zm2.931,50.934h-5.862l-2.685-3.99H110.1ZM97.809,129.6v-3.263h13.374l.012,3.263Zm13.94-13.017v.037a1.233,1.233,0,0,0-.554,1.034v6.256H97.809v-6.33a1.234,1.234,0,0,0-.554-1.034,17.243,17.243,0,0,1-7.66-14.088,14.913,14.913,0,0,1,29.814,0A17.239,17.239,0,0,1,111.75,116.584Z" transform="translate(-87.12 -85.12)" fill="#d0ad6a"/>
      </g>
    </g>
    <g id="Group_480" data-name="Group 480" transform="translate(552.923 1925.935)">
      <g id="Group_479" data-name="Group 479">
        <path id="Path_548" data-name="Path 548" d="M196.431,121.36a1.231,1.231,0,0,0,0,2.463A9.285,9.285,0,0,1,205.7,133.1a1.231,1.231,0,1,0,2.463,0A11.747,11.747,0,0,0,196.431,121.36Z" transform="translate(-195.2 -121.36)" fill="#d0ad6a"/>
      </g>
    </g>
    <g id="Group_482" data-name="Group 482" transform="translate(522.875 1936.44)">
      <g id="Group_481" data-name="Group 481">
        <path id="Path_549" data-name="Path 549" d="M10.1,189.6H1.231a1.231,1.231,0,0,0,0,2.463H10.1a1.231,1.231,0,0,0,1.231-1.231h0A1.231,1.231,0,0,0,10.1,189.6Z" transform="translate(0 -189.6)" fill="#d0ad6a"/>
      </g>
    </g>
    <g id="Group_484" data-name="Group 484" transform="translate(573.119 1936.44)">
      <g id="Group_483" data-name="Group 483">
        <path id="Path_550" data-name="Path 550" d="M336.5,189.6h-8.867a1.231,1.231,0,0,0,0,2.463H336.5a1.231,1.231,0,1,0,0-2.463Z" transform="translate(-326.4 -189.6)" fill="#d0ad6a"/>
      </g>
    </g>
    <g id="Group_486" data-name="Group 486" transform="translate(531.434 1951.021)">
      <g id="Group_485" data-name="Group 485">
        <path id="Path_551" data-name="Path 551" d="M64.2,284.752a1.231,1.231,0,0,0-1.87,0v-.025l-6.293,6.317a1.231,1.231,0,1,0,1.736,1.736l6.293-6.293A1.23,1.23,0,0,0,64.2,284.752Z" transform="translate(-55.601 -284.321)" fill="#d0ad6a"/>
      </g>
    </g>
    <g id="Group_488" data-name="Group 488" transform="translate(567.065 1915.579)">
      <g id="Group_487" data-name="Group 487">
        <path id="Path_552" data-name="Path 552" d="M295.331,54.376a1.234,1.234,0,0,0-1.6,0l-6.293,6.293a1.231,1.231,0,0,0,.874,2.106l-.012-.012a1.23,1.23,0,0,0,.874-.357l6.293-6.293A1.233,1.233,0,0,0,295.331,54.376Z" transform="translate(-287.071 -54.08)" fill="#d0ad6a"/>
      </g>
    </g>
    <g id="Group_490" data-name="Group 490" transform="translate(566.999 1950.996)">
      <g id="Group_489" data-name="Group 489">
        <path id="Path_553" data-name="Path 553" d="M295.346,291.157a1.205,1.205,0,0,0-.245-.248l-6.293-6.318a1.231,1.231,0,1,0-1.736,1.736l6.293,6.293a1.232,1.232,0,0,0,1.981-1.464Z" transform="translate(-286.641 -284.161)" fill="#d0ad6a"/>
      </g>
    </g>
    <g id="Group_492" data-name="Group 492" transform="translate(531.568 1915.578)">
      <g id="Group_491" data-name="Group 491">
        <path id="Path_554" data-name="Path 554" d="M64.8,60.667l-6.293-6.293a1.231,1.231,0,0,0-1.736,1.736L63.062,62.4A1.231,1.231,0,0,0,64.8,60.667Z" transform="translate(-56.472 -54.079)" fill="#d0ad6a"/>
      </g>
    </g>
    <g id="Group_494" data-name="Group 494" transform="translate(552.43 1907.254)">
      <g id="Group_493" data-name="Group 493">
        <path id="Path_555" data-name="Path 555" d="M193.228,0A1.231,1.231,0,0,0,192,1.231v8.9a1.233,1.233,0,0,0,1.195,1.268h.037a1.231,1.231,0,0,0,1.231-1.231V1.231A1.231,1.231,0,0,0,193.228,0Z" transform="translate(-191.996)" fill="#d0ad6a"/>
      </g>
    </g>
  </g>
</svg>
