<svg xmlns="http://www.w3.org/2000/svg" width="50.658" height="50.657" viewBox="0 0 50.658 50.657">
  <g id="Group_841" data-name="Group 841" transform="translate(-1344.875 -1902.396)">
    <path id="Path_556" data-name="Path 556" d="M127.729,353.2a1,1,0,0,1-.378-.076,1.047,1.047,0,0,1-.171-.091,1,1,0,0,1-.15-.123.947.947,0,0,1-.123-.15.976.976,0,0,1-.091-.171,1,1,0,0,1-.056-.185.975.975,0,0,1-.02-.193,1,1,0,0,1,.29-.7.975.975,0,0,1,.322-.215,1,1,0,0,1,.185-.056.978.978,0,0,1,.387,0,1,1,0,0,1,.185.056,1.057,1.057,0,0,1,.171.091,1.123,1.123,0,0,1,.15.124,1,1,0,0,1,.29.7.975.975,0,0,1-.02.193,1,1,0,0,1-.056.185.976.976,0,0,1-.091.171,1,1,0,0,1-.123.15.993.993,0,0,1-.322.214,1,1,0,0,1-.379.076Z" transform="translate(1230.674 1585.921)" fill="#d0ad6a"/>
    <path id="Path_557" data-name="Path 557" d="M400.549,163.143a.982.982,0,0,1-.194-.019,1.019,1.019,0,0,1-.185-.056,1,1,0,0,1-.17-.091,1.017,1.017,0,0,1-.15-.124.952.952,0,0,1-.124-.15,1.009,1.009,0,0,1-.091-.17,1.05,1.05,0,0,1-.056-.185.992.992,0,0,1-.019-.194.975.975,0,0,1,.019-.193,1,1,0,0,1,.056-.185.981.981,0,0,1,.091-.171.983.983,0,0,1,.274-.273,1,1,0,0,1,.17-.091,1.02,1.02,0,0,1,.185-.056.979.979,0,0,1,.387,0,1,1,0,0,1,.185.056,1.015,1.015,0,0,1,.171.091.962.962,0,0,1,.273.273.977.977,0,0,1,.091.171.992.992,0,0,1,.056.185.969.969,0,0,1,.02.193.986.986,0,0,1-.02.194,1.039,1.039,0,0,1-.056.185,1,1,0,0,1-.091.17.948.948,0,0,1-.123.15.974.974,0,0,1-.322.215,1,1,0,0,1-.185.056A.973.973,0,0,1,400.549,163.143Z" transform="translate(984.847 1757.177)" fill="#d0ad6a"/>
    <path id="Path_558" data-name="Path 558" d="M50.581,27.747a.988.988,0,0,0-.914-.61H41.511V23.52h3.516l.05,0H45.1l.019,0h0a.983.983,0,0,0,.429-.146h0l.018-.012,0,0,.015-.011.006,0,.012-.009.008-.006.01-.007.01-.008.008-.007.012-.009,0,0,.013-.011,0,0c.017-.015.034-.03.049-.046l4.641-4.64a.988.988,0,0,0,.29-.7V1.286a1.048,1.048,0,0,0-.011-.148A.99.99,0,0,0,49.667,0h-16.9a.987.987,0,0,0-.7.29l-4.64,4.641-.016.016,0,0-.011.012,0,0-.011.012,0,0L27.362,5l0,.006-.009.011-.006.008-.006.008a.085.085,0,0,1-.007.01l0,0a.977.977,0,0,0-.188.515h0c0,.009,0,.018,0,.028v5.081H23.52V1.286a2.671,2.671,0,0,0-.075-.675A.989.989,0,0,0,22.53,0H5.631a.987.987,0,0,0-.7.29L.29,4.931c-.011.011-.129.157-.129.158A.994.994,0,0,0,0,5.539s0,.007,0,.011,0,.006,0,.009C0,5.584,0,22.53,0,22.53a.99.99,0,0,0,.989.989H12.54v3.617H5.631a.987.987,0,0,0-.7.29L.29,32.067a1.151,1.151,0,0,0-.29.708V49.667a.99.99,0,0,0,.989.989h16.9a1.082,1.082,0,0,0,.7-.29l4.64-4.641a.988.988,0,0,0,.29-.7V40.084h3.617v9.583a.99.99,0,0,0,.989.989h16.9a1.111,1.111,0,0,0,.7-.29l4.641-4.641a.988.988,0,0,0,.29-.7v-16.6A2.627,2.627,0,0,0,50.581,27.747Zm-3.3,1.368-2.661,2.661h-14.1l2.662-2.661h6.355v.83a.989.989,0,1,0,1.979,0v-.83ZM29.116,6.62H39.531v6.505a.989.989,0,1,0,1.979,0V6.62h2.527V21.541H29.116Zm16.9,13.522V6.04l2.662-2.662v14.1ZM33.177,1.979h14.1L44.617,4.641h-14.1ZM20.9,12.65h.638v4.829l-2.661,2.662V6.04l2.661-2.661v7.293H20.9a.989.989,0,1,0,0,1.979ZM6.04,1.979h14.1L17.479,4.641H3.378ZM1.979,6.62H16.9V21.541H1.979Zm4.061,22.5h6.5v.9a.989.989,0,1,0,1.979,0v-.9h5.623l-2.662,2.661H3.378Zm-4.061,4.64H16.9V48.678H14.519V39.549a.989.989,0,1,0-1.979,0v9.129H1.979ZM21.541,44.616l-2.661,2.662v-14.1l2.661-2.662v7.591H20.9a.989.989,0,1,0,0,1.979h.638Zm1.979-6.511V28.522a3.054,3.054,0,0,0-.075-.775.988.988,0,0,0-.914-.61H14.519V23.52h3.367l.1,0a.984.984,0,0,0,.45-.159s.152-.124.153-.126l4.64-4.64a.988.988,0,0,0,.29-.7V12.65h3.617v9.88a.99.99,0,0,0,.989.989H39.533v3.617H32.767a.987.987,0,0,0-.7.29l-4.64,4.64a1.029,1.029,0,0,0-.29.7v5.339Zm5.6-4.349H44.037V48.678H29.116Zm16.9,13.523v-14.1l2.662-2.662v14.1Z" transform="translate(1344.875 1902.396)" fill="#d0ad6a"/>
  </g>
</svg>
