<svg xmlns="http://www.w3.org/2000/svg" width="56.132" height="56.275" viewBox="0 0 56.132 56.275">
  <g id="Group_840" data-name="Group 840" transform="translate(-930.875 -1898.668)">
    <g id="Group_360" data-name="Group 360" transform="translate(930.875 1898.668)">
      <g id="Group_359" data-name="Group 359">
        <path id="Path_475" data-name="Path 475" d="M53.793,21.046H49.139a22.038,22.038,0,0,0-1.2-2.924l3.286-3.286h0a2.338,2.338,0,0,0,0-3.308L44.6,4.912a2.4,2.4,0,0,0-3.308,0L38.005,8.2a21.977,21.977,0,0,0-2.924-1.2V2.338A2.337,2.337,0,0,0,32.744,0H23.389a2.339,2.339,0,0,0-2.34,2.338V6.995a22.211,22.211,0,0,0-2.927,1.2L14.837,4.912a2.394,2.394,0,0,0-3.309,0L4.912,11.528a2.339,2.339,0,0,0,0,3.308L8.2,18.127a21.977,21.977,0,0,0-1.2,2.924H2.338A2.337,2.337,0,0,0,0,23.388v4.678H2.338V23.388H7.857a1.17,1.17,0,0,0,1.124-.845,19.757,19.757,0,0,1,1.677-4.076,1.169,1.169,0,0,0-.2-1.392l-3.9-3.892,6.615-6.615,3.9,3.9a1.168,1.168,0,0,0,1.391.2,19.9,19.9,0,0,1,4.073-1.677,1.17,1.17,0,0,0,.845-1.124V2.338h9.355V7.857a1.17,1.17,0,0,0,.845,1.124,19.825,19.825,0,0,1,4.078,1.677,1.169,1.169,0,0,0,1.391-.2l3.892-3.9,6.615,6.615-3.9,3.9a1.169,1.169,0,0,0-.2,1.392,19.9,19.9,0,0,1,1.677,4.073,1.17,1.17,0,0,0,1.124.845h5.519v4.678h2.338V23.385A2.338,2.338,0,0,0,53.793,21.046Z" transform="translate(0 0)" fill="#d0ad6a"/>
      </g>
    </g>
    <g id="Group_362" data-name="Group 362" transform="translate(947.246 1913.871)">
      <g id="Group_361" data-name="Group 361">
        <path id="Path_476" data-name="Path 476" d="M161.024,138.67a11.7,11.7,0,0,0-11.694,11.694v1.169h2.338v-1.17a9.355,9.355,0,1,1,18.71,0v1.17h2.338v-1.17A11.691,11.691,0,0,0,161.024,138.67Z" transform="translate(-149.33 -138.67)" fill="#d0ad6a"/>
      </g>
    </g>
    <g id="Group_364" data-name="Group 364" transform="translate(957.771 1903.346)">
      <g id="Group_363" data-name="Group 363">
        <rect id="Rectangle_125" data-name="Rectangle 125" width="2.338" height="2.338" fill="#d0ad6a"/>
      </g>
    </g>
    <g id="Group_366" data-name="Group 366" transform="translate(942.569 1910.362)">
      <g id="Group_365" data-name="Group 365">
        <rect id="Rectangle_126" data-name="Rectangle 126" width="2.338" height="2.338" fill="#d0ad6a"/>
      </g>
    </g>
    <g id="Group_368" data-name="Group 368" transform="translate(935.553 1924.395)">
      <g id="Group_367" data-name="Group 367">
        <rect id="Rectangle_127" data-name="Rectangle 127" width="2.338" height="2.338" fill="#d0ad6a"/>
      </g>
    </g>
    <g id="Group_370" data-name="Group 370" transform="translate(979.99 1924.395)">
      <g id="Group_369" data-name="Group 369">
        <rect id="Rectangle_128" data-name="Rectangle 128" width="2.338" height="2.338" fill="#d0ad6a"/>
      </g>
    </g>
    <g id="Group_372" data-name="Group 372" transform="translate(972.974 1910.362)">
      <g id="Group_371" data-name="Group 371">
        <rect id="Rectangle_129" data-name="Rectangle 129" width="2.338" height="2.338" fill="#d0ad6a"/>
      </g>
    </g>
    <g id="Group_374" data-name="Group 374" transform="translate(947.758 1933.75)">
      <g id="Group_373" data-name="Group 373">
        <path id="Path_477" data-name="Path 477" d="M175.2,320H155.17a1.17,1.17,0,0,0-1.17,1.17v5.847h2.338v-4.678h17.686v4.678h2.338V321.17A1.168,1.168,0,0,0,175.2,320Z" transform="translate(-154 -320)" fill="#d0ad6a"/>
      </g>
    </g>
    <g id="Group_376" data-name="Group 376" transform="translate(957.771 1925.564)">
      <g id="Group_375" data-name="Group 375">
        <rect id="Rectangle_130" data-name="Rectangle 130" width="2.338" height="9.561" fill="#d0ad6a"/>
      </g>
    </g>
    <g id="Group_383" data-name="Group 383" transform="translate(940.58 1943.25)">
      <g id="Group_378" data-name="Group 378">
        <g id="Group_377" data-name="Group 377">
          <path id="Path_478" data-name="Path 478" d="M102.552,406.65H90.858a2.338,2.338,0,0,0-2.338,2.338V416a2.339,2.339,0,0,0,2.338,2.338h11.694A2.339,2.339,0,0,0,104.891,416v-7.016A2.339,2.339,0,0,0,102.552,406.65Zm0,9.356H90.858V408.99h11.694v7.016Z" transform="translate(-88.52 -406.65)" fill="#d0ad6a"/>
        </g>
      </g>
      <g id="Group_380" data-name="Group 380" transform="translate(4.677 4.678)">
        <g id="Group_379" data-name="Group 379">
          <rect id="Rectangle_131" data-name="Rectangle 131" width="2.338" height="2.338" fill="#d0ad6a"/>
        </g>
      </g>
      <g id="Group_382" data-name="Group 382" transform="translate(9.354 4.678)">
        <g id="Group_381" data-name="Group 381">
          <rect id="Rectangle_132" data-name="Rectangle 132" width="2.338" height="2.338" fill="#d0ad6a"/>
        </g>
      </g>
    </g>
    <g id="Group_390" data-name="Group 390" transform="translate(960.928 1943.25)">
      <g id="Group_385" data-name="Group 385">
        <g id="Group_384" data-name="Group 384">
          <path id="Path_479" data-name="Path 479" d="M288.163,406.65H276.468a2.339,2.339,0,0,0-2.338,2.338V416a2.339,2.339,0,0,0,2.338,2.338h11.694A2.338,2.338,0,0,0,290.5,416v-7.016A2.339,2.339,0,0,0,288.163,406.65Zm0,9.356H276.468V408.99h11.694Z" transform="translate(-274.13 -406.65)" fill="#d0ad6a"/>
        </g>
      </g>
      <g id="Group_387" data-name="Group 387" transform="translate(4.677 4.678)">
        <g id="Group_386" data-name="Group 386">
          <rect id="Rectangle_133" data-name="Rectangle 133" width="2.338" height="2.338" fill="#d0ad6a"/>
        </g>
      </g>
      <g id="Group_389" data-name="Group 389" transform="translate(9.355 4.678)">
        <g id="Group_388" data-name="Group 388">
          <rect id="Rectangle_134" data-name="Rectangle 134" width="2.338" height="2.338" fill="#d0ad6a"/>
        </g>
      </g>
    </g>
    <g id="Group_392" data-name="Group 392" transform="translate(953.094 1919.717)">
      <g id="Group_391" data-name="Group 391">
        <path id="Path_480" data-name="Path 480" d="M208.517,192a5.846,5.846,0,0,0-5.847,5.847v1.17h2.338v-1.17a3.508,3.508,0,1,1,7.016,0v1.17h2.338v-1.17A5.847,5.847,0,0,0,208.517,192Z" transform="translate(-202.67 -192)" fill="#d0ad6a"/>
      </g>
    </g>
  </g>
</svg>
