<svg xmlns="http://www.w3.org/2000/svg" width="24.297" height="24.302" viewBox="0 0 24.297 24.302">
  <path id="Path_638" data-name="Path 638" d="M434.965,17.164A7.226,7.226,0,0,1,433,22.258a7.215,7.215,0,0,1-5.094,1.961c-1.676.1-3.34.078-5.016.078s-3.34.015-5.016-.078a7.227,7.227,0,0,1-5.094-1.961,7.215,7.215,0,0,1-1.961-5.094c-.1-1.676-.078-3.34-.078-5.016s-.015-3.34.078-5.016a7.226,7.226,0,0,1,1.961-5.094A7.216,7.216,0,0,1,417.879.078c1.674-.1,3.335-.081,5.013-.081s3.34-.015,5.016.078A7.227,7.227,0,0,1,433,2.036a7.215,7.215,0,0,1,1.961,5.094c.1,1.676.078,3.34.078,5.016S435.058,15.488,434.965,17.164ZM415.724,2.671a3.884,3.884,0,0,0-1.391.917,3.872,3.872,0,0,0-.917,1.391c-.633,1.6-.491,5.4-.491,7.168s-.144,5.57.491,7.168a4.145,4.145,0,0,0,2.309,2.309c1.6.633,5.4.491,7.168.491s5.57.141,7.168-.491a4.144,4.144,0,0,0,2.309-2.309c.633-1.6.491-5.4.491-7.168s.144-5.57-.491-7.168a3.883,3.883,0,0,0-.917-1.391,3.872,3.872,0,0,0-1.391-.917c-1.6-.633-5.4-.491-7.168-.491S417.322,2.039,415.724,2.671Zm7.168,15.712a6.233,6.233,0,1,1,6.233-6.233A6.226,6.226,0,0,1,422.892,18.384Zm0-10.286a4.05,4.05,0,1,0,4.05,4.05A4.059,4.059,0,0,0,422.892,8.1Zm6.488-.98a1.456,1.456,0,1,1,1.457-1.457A1.453,1.453,0,0,1,429.38,7.118Z" transform="translate(-410.745 0.004)" fill="#d0ad6a"/>
</svg>
