<svg xmlns="http://www.w3.org/2000/svg" width="24.302" height="24.305" viewBox="0 0 24.302 24.305">
  <path id="Path_637" data-name="Path 637" d="M298.122,19.748a4.559,4.559,0,0,1-4.557,4.557H278.377a4.559,4.559,0,0,1-4.557-4.557V4.557A4.559,4.559,0,0,1,278.377,0h15.188a4.559,4.559,0,0,1,4.557,4.557ZM279.42,4.083a1.9,1.9,0,1,0-.045,3.8h.015a1.912,1.912,0,0,0,2.072-1.9A1.893,1.893,0,0,0,279.42,4.083Zm1.8,16.264V9.368H277.57V20.35h3.655Zm13.147,0v-6.3c0-3.37-1.8-4.938-4.209-4.938a3.609,3.609,0,0,0-3.307,1.85h.03v-1.6h-3.655s.048,1.028,0,10.982h3.655V14.21a2.556,2.556,0,0,1,.111-.887,2.018,2.018,0,0,1,1.883-1.328c1.313,0,1.835,1,1.835,2.485v5.87h3.657Z" transform="translate(-273.82)" fill="#d0ad6a"/>
</svg>
