<?xml version="1.0" encoding="utf-8"?>
<!-- Generator: Adobe Illustrator 24.3.0, SVG Export Plug-In . SVG Version: 6.00 Build 0)  -->
<svg version="1.1" id="Layer_1" xmlns="http://www.w3.org/2000/svg" xmlns:xlink="http://www.w3.org/1999/xlink" x="0px" y="0px"
	 viewBox="0 0 112.3 137.5" style="enable-background:new 0 0 112.3 137.5;" xml:space="preserve">
<style type="text/css">
	.st0{fill:#FFFFFF;}
	.st1{opacity:0.399;fill:#FFFFFF;enable-background:new    ;}
</style>
<g id="Group_3541" transform="translate(-268.42 -287.025)">
	<g transform="matrix(1, 0, 0, 1, 268.42, 287.02)">
		<path id="Path_1700-2" class="st0" d="M72.7,46.2c0,9.4-5.3,14.4-15.6,14.4H38.2V32h18.9C67.5,32,72.7,37.6,72.7,46.2z M0,0v137.5
			h38.2V86.8h4.1l27.3,50.7h42.7l-31-53.6c20.5-6.2,30.2-21.8,30.2-39.8C111.5,19.5,94.4,0,60.3,0H0z"/>
	</g>
	<g transform="matrix(1, 0, 0, 1, 268.42, 287.02)">
		<path id="Path_1701-2" class="st1" d="M72.7,46.2c0,9.4-5.3,14.4-15.6,14.4H38.2V32h18.9C67.5,32,72.7,37.6,72.7,46.2z M0,0v137.5
			h38.2V86.8h4.1l27.3,50.7h42.7l-31-53.6c20.5-6.2,30.2-21.8,30.2-39.8C111.5,19.5,94.4,0,60.3,0H0z"/>
	</g>
</g>
</svg>
