<svg xmlns="http://www.w3.org/2000/svg" xmlns:xlink="http://www.w3.org/1999/xlink" width="678.555" height="186.985" viewBox="0 0 678.555 186.985">
  <defs>
    <filter id="PEOPLE" x="0" y="0" width="678.555" height="185.985" filterUnits="userSpaceOnUse">
      <feOffset input="SourceAlpha"/>
      <feGaussianBlur stdDeviation="7.5" result="blur"/>
      <feFlood flood-opacity="0.161"/>
      <feComposite operator="in" in2="blur"/>
      <feComposite in="SourceGraphic"/>
    </filter>
    <filter id="Path_1699" x="0" y="1" width="678.555" height="185.985" filterUnits="userSpaceOnUse">
      <feOffset input="SourceAlpha"/>
      <feGaussianBlur stdDeviation="7.5" result="blur-2"/>
      <feFlood flood-opacity="0.161"/>
      <feComposite operator="in" in2="blur-2"/>
      <feComposite in="SourceGraphic"/>
    </filter>
  </defs>
  <g id="Group_3542" data-name="Group 3542" transform="translate(9062.58 -5310.88)">
    <g id="Group_3540" data-name="Group 3540" transform="translate(-9331 5026)">
      <g transform="matrix(1, 0, 0, 1, 268.42, 284.88)" filter="url(#PEOPLE)" style="mix-blend-mode: overlay;isolation: isolate">
        <path id="PEOPLE-2" data-name="PEOPLE" d="M49.14-76.83v-29.835H64.35c11.5,0,16.185,5.85,16.185,15.015,0,8.97-4.68,14.82-16.185,14.82Zm70.395-14.82c0-26.52-17.355-45.825-51.48-45.825H10.92V0H49.14V-46.41H68.055C102.96-46.41,119.535-67.665,119.535-91.65Zm91.65-45.825H123.24V0h87.945V-30.615H161.46V-55.38h43.875V-84.435H161.46V-106.86h49.725Zm143.52,68.25c0-41.34-31.2-70.4-70.4-70.4-39,0-70.59,29.055-70.59,70.4s31.59,70.59,70.59,70.59S354.705-27.885,354.705-69.225Zm-101.985,0c0-21.645,11.7-35.3,31.59-35.3,19.7,0,31.59,13.65,31.59,35.3,0,21.255-11.895,35.1-31.59,35.1C264.42-34.125,252.72-47.97,252.72-69.225ZM398.385-76.83v-29.835H413.6c11.505,0,16.185,5.85,16.185,15.015,0,8.97-4.68,14.82-16.185,14.82ZM468.78-91.65c0-26.52-17.355-45.825-51.48-45.825H360.165V0h38.22V-46.41H417.3C452.2-46.41,468.78-67.665,468.78-91.65Zm3.705-45.825V0H553.41V-29.25h-42.7V-137.475Zm171.99,0H556.53V0h87.945V-30.615H594.75V-55.38h43.875V-84.435H594.75V-106.86h49.725Z" transform="translate(11.58 162.12)" fill="#fff"/>
      </g>
      <g transform="matrix(1, 0, 0, 1, 268.42, 284.88)" filter="url(#Path_1699)" style="mix-blend-mode: overlay;isolation: isolate">
        <path id="Path_1699-2" data-name="Path 1699" d="M49.14-76.83v-29.835H64.35c11.5,0,16.185,5.85,16.185,15.015,0,8.97-4.68,14.82-16.185,14.82Zm70.395-14.82c0-26.52-17.355-45.825-51.48-45.825H10.92V0H49.14V-46.41H68.055C102.96-46.41,119.535-67.665,119.535-91.65Zm91.65-45.825H123.24V0h87.945V-30.615H161.46V-55.38h43.875V-84.435H161.46V-106.86h49.725Zm143.52,68.25c0-41.34-31.2-70.4-70.4-70.4-39,0-70.59,29.055-70.59,70.4s31.59,70.59,70.59,70.59S354.705-27.885,354.705-69.225Zm-101.985,0c0-21.645,11.7-35.3,31.59-35.3,19.7,0,31.59,13.65,31.59,35.3,0,21.255-11.895,35.1-31.59,35.1C264.42-34.125,252.72-47.97,252.72-69.225ZM398.385-76.83v-29.835H413.6c11.505,0,16.185,5.85,16.185,15.015,0,8.97-4.68,14.82-16.185,14.82ZM468.78-91.65c0-26.52-17.355-45.825-51.48-45.825H360.165V0h38.22V-46.41H417.3C452.2-46.41,468.78-67.665,468.78-91.65Zm3.705-45.825V0H553.41V-29.25h-42.7V-137.475Zm171.99,0H556.53V0h87.945V-30.615H594.75V-55.38h43.875V-84.435H594.75V-106.86h49.725Z" transform="translate(11.58 163.12)" fill="#fff" opacity="0.399"/>
      </g>
    </g>
  </g>
</svg>
