<svg xmlns="http://www.w3.org/2000/svg" width="96" height="96" viewBox="0 0 96 96">
  <g id="soccer" transform="translate(-760.5 -3664)">
    <g id="Ellipse_57" data-name="Ellipse 57" transform="translate(760.5 3664)" fill="#151515" stroke="red" stroke-width="2">
      <circle cx="48" cy="48" r="48" stroke="none"/>
      <circle class="tog-circle" cx="48" cy="48" r="47" fill="none"/>
    </g>
    <g id="Group_683" data-name="Group 683" transform="translate(785.5 3690.078)">
      <g id="Group_512" data-name="Group 512" transform="translate(0 0)">
        <g id="Group_511" data-name="Group 511">
          <path id="Path_568" data-name="Path 568" d="M42.076,9.38A23.512,23.512,0,0,0,9.518,4.454,22.757,22.757,0,0,0,.277,19.479a22.514,22.514,0,0,0,2.9,15.056l.005.01A23.214,23.214,0,0,0,17.964,45.312c.246.057.492.109.739.158a.937.937,0,0,0,.157.03,23.576,23.576,0,0,0,8.891,0,.875.875,0,0,0,.128-.024,23.363,23.363,0,0,0,5.889-2,.891.891,0,0,0,.4-1.2.916.916,0,0,0-1.222-.4A21.888,21.888,0,0,1,29.5,43.24l3.773-6.447,7.386-1.368a20.873,20.873,0,0,1-2.149,2.485.889.889,0,0,0,0,1.268.92.92,0,0,0,1.287,0,22.812,22.812,0,0,0,3.577-4.563c.007-.012.015-.023.021-.036a22.8,22.8,0,0,0,3.033-8.893.53.53,0,0,0,.007-.066c.033-.274.061-.547.084-.823A22.7,22.7,0,0,0,42.076,9.38ZM26.557,2.043A21.413,21.413,0,0,1,38.763,8.275l-1.11,9.408L30.52,19.262l-6.289-4.5V8.022l1.4-.99a.888.888,0,0,0,.209-1.251.918.918,0,0,0-1.269-.206L23.26,6.5l-6.268-3.78A21.692,21.692,0,0,1,26.557,2.043ZM17.35,20.569l2.964-2.122,2.964-2.122L29.2,20.569,26.94,27.437H19.614ZM10.595,5.9a21.738,21.738,0,0,1,4.221-2.388l7.55,4.553v6.694l-6.289,4.5L8.916,17.677,7.455,8.669A21.644,21.644,0,0,1,10.595,5.9ZM2.075,19.752a20.914,20.914,0,0,1,3.838-9.226l1.231,7.585L1.826,23.4A21.191,21.191,0,0,1,2.075,19.752Zm-.067,6.016,6.4-6.364,7.168,1.586L17.953,28.2l-4.476,6.789L4.561,33.305A20.752,20.752,0,0,1,2.008,25.767Zm3.98,9.717-.07-.1,7.409,1.4,3.784,6.466A21.45,21.45,0,0,1,5.988,35.485Zm21.068,8.336a21.628,21.628,0,0,1-7.508.008l-4.573-7.815,4.472-6.784h7.7l4.472,6.784ZM42,33.35l-8.878,1.644L28.644,28.2l2.378-7.214L38.184,19.4l6.349,6.427A21.083,21.083,0,0,1,42,33.35Zm2.723-9.9L39.434,18.1l.94-7.966c.079.1.157.2.235.308A20.9,20.9,0,0,1,44.723,23.452Z" transform="translate(-0.002 0.001)" fill="#d0ad6a"/>
        </g>
      </g>
      <g id="Group_514" data-name="Group 514" transform="translate(26.732 3.663)">
        <g id="Group_513" data-name="Group 513">
          <path id="Path_569" data-name="Path 569" d="M295.333,40.527a.909.909,0,1,0,.267.643A.917.917,0,0,0,295.333,40.527Z" transform="translate(-293.78 -40.26)" fill="#d0ad6a"/>
        </g>
      </g>
      <g id="Group_516" data-name="Group 516" transform="translate(35.521 39.8)">
        <g id="Group_515" data-name="Group 515">
          <path id="Path_570" data-name="Path 570" d="M391.923,444.977a.91.91,0,1,0,.267.643A.917.917,0,0,0,391.923,444.977Z" transform="translate(-390.37 -444.71)" fill="#d0ad6a"/>
        </g>
      </g>
    </g>
  </g>
</svg>
