<svg xmlns="http://www.w3.org/2000/svg" width="96" height="96" viewBox="0 0 96 96">
  <g id="tenis" transform="translate(-760.5 -3904)">
    <g id="Ellipse_59" data-name="Ellipse 59" transform="translate(760.5 3904)" fill="#151515" stroke="red" stroke-width="2">
      <circle cx="48" cy="48" r="48" stroke="none"/>
      <circle class="tog-circle" cx="48" cy="48" r="47" fill="none"/>
    </g>
    <g id="Group_1147" data-name="Group 1147" transform="translate(392.284 3924.408)">
      <path id="Path_1587" data-name="Path 1587" d="M422.362,0a16.506,16.506,0,0,1,8.011,3.408,22.487,22.487,0,0,1,8.274,14.964c.724,5.57-1.1,10.308-4.79,14.529,2.537,2.269,5.036,4.546,7.582,6.77,2.727,2.383,2.846,4.872.288,7.45-.512.517-1.012,1.047-1.549,1.538a4.252,4.252,0,0,1-6.249-.265c-2.061-2.222-4.053-4.507-6.077-6.763-.422-.471-.855-.933-1.5-1.641.181,3.359.281,6.4.528,9.434.243,2.991-1.541,5.113-4.532,5.181-.808.018-1.617.017-2.426,0a4.356,4.356,0,0,1-4.574-4.794c.092-2.219.291-4.433.422-6.651.038-.635.006-1.275.006-1.592a52.23,52.23,0,0,1-7.13-2.61c-5.652-3.04-8.518-8.174-9.815-14.266-1.018-4.786-.577-9.4,2.155-13.6a13.967,13.967,0,0,1,7.986-5.731,4.181,4.181,0,0,0,1.56-.829A15.774,15.774,0,0,1,419.378.17a1,1,0,0,0,.315-.17ZM401.21,20.6a18.269,18.269,0,0,0,1.751,7.945c2.1,4.632,5.352,8.024,10.432,9.318a1.613,1.613,0,0,0,1.3-.349c5.429-5.374,10.808-10.8,16.242-16.168a1.793,1.793,0,0,0,.494-2.118,14.94,14.94,0,0,0-6.3-8.315,19.57,19.57,0,0,0-14.177-3.132C404.98,8.758,401.219,13.614,401.21,20.6Zm16.9,17.533.134.438c1.6-.455,3.239-.806,4.791-1.389,2.518-.946,4.039-.639,5.819,1.37q3.415,3.852,6.866,7.672c1.083,1.194,1.708,1.189,2.828.089.49-.481.977-.965,1.455-1.458,1.065-1.1,1.024-1.78-.149-2.823-2.473-2.2-4.952-4.4-7.414-6.61-2.325-2.092-2.558-3.377-1.478-6.315.542-1.475.833-3.042,1.305-4.819a3.784,3.784,0,0,0-.636.315Q424.87,31.368,418.113,38.138Zm16.6-12.164.405.007a32.633,32.633,0,0,0,.805-4.1,18.691,18.691,0,0,0-4.748-13.8c-2.9-3.41-6.461-5.581-11.166-5.165A10.369,10.369,0,0,0,415.02,4.7c5.829.528,10.786,2.42,14.749,6.426C433.827,15.23,435.295,20.269,434.716,25.974ZM423.549,40.211c-1.467.293-2.848.526-4.2.874a1.206,1.206,0,0,0-.709.861c-.19,2.773-.328,5.551-.434,8.329a1.312,1.312,0,0,0,1.412,1.463c.886.034,1.774.027,2.661.011,1.334-.023,1.835-.5,1.777-1.839C423.917,46.693,423.724,43.477,423.549,40.211Z" transform="translate(-2.353)" fill="#d0ad6a"/>
      <path id="Path_1588" data-name="Path 1588" d="M395.216,169.688a5.44,5.44,0,0,1,5.578-5.576,5.579,5.579,0,0,1,5.614,5.6,5.757,5.757,0,0,1-5.583,5.593A5.6,5.6,0,0,1,395.216,169.688Zm8.321,0a2.779,2.779,0,0,0-2.8-2.849,2.966,2.966,0,0,0-2.794,2.8,2.775,2.775,0,0,0,2.857,2.785A2.676,2.676,0,0,0,403.537,169.691Z" transform="translate(0 -124.101)" fill="#d0ad6a"/>
    </g>
  </g>
</svg>
