<svg xmlns="http://www.w3.org/2000/svg" width="181" height="26.158" viewBox="0 0 181 26.158" class="horizontal-logo">
  <g id="Group_3465" data-name="Group 3465" transform="translate(0)">
    <g id="Group_6" data-name="Group 6" transform="translate(0 0)">
      <g id="Group_1" data-name="Group 1" transform="translate(0 4.042)">
        <g id="logotext">
          <path id="Path_1" data-name="Path 1" d="M7.407,68.111H6.438q-.368,0-.368-.4V48.426c0-.2-.112-.3-.334-.3H.89q-.4,0-.4-.368v-.769q0-.367.4-.368H12.922q.4,0,.4.368v.769q0,.368-.4.368H8.076q-.334,0-.334.3V67.71Q7.742,68.111,7.407,68.111Z" transform="translate(-0.489 -46.083)"/>
          <path id="Path_2" data-name="Path 2" d="M153.886,68.111h-.969q-.334,0-.334-.4V47.022q0-.4.334-.4h.969q.367,0,.368.4v9.124q0,.3.334.3h9.358c.222,0,.334-.1.334-.3V47.022q0-.4.334-.4h.969q.367,0,.368.4V67.71q0,.4-.368.4h-.969q-.335,0-.334-.4V58.252c0-.2-.112-.3-.334-.3h-9.358q-.335,0-.334.3V67.71Q154.254,68.111,153.886,68.111Z" transform="translate(-137.644 -46.083)"/>
          <path id="Path_3" data-name="Path 3" d="M343.576,68.111H333.248q-.334,0-.334-.4V47.022q0-.4.334-.4h10.327q.4,0,.4.368v.769q0,.368-.4.368h-8.656q-.334,0-.334.3v7.687q0,.3.334.3h7.721a.325.325,0,0,1,.368.368v.769a.325.325,0,0,1-.368.368h-7.721q-.334,0-.334.3v8.088q0,.3.334.3h8.656q.4,0,.4.368v.769Q343.977,68.112,343.576,68.111Z" transform="translate(-300.261 -46.083)"/>
        </g>
        <path id="Path_4" data-name="Path 4" d="M733.7,63.18h-3.734a5.732,5.732,0,0,1-4.179-1.439,5.533,5.533,0,0,1-1.473-4.145V46.736a5.534,5.534,0,0,1,1.473-4.145,5.732,5.732,0,0,1,4.179-1.439H733.7a5.7,5.7,0,0,1,4.162,1.456,5.508,5.508,0,0,1,1.49,4.128v1.61a.666.666,0,0,1-.754.754h-2.878q-.719,0-.719-.754v-1.4a1.705,1.705,0,0,0-2.021-2.021h-2.33a2.1,2.1,0,0,0-1.524.463,2.155,2.155,0,0,0-.463,1.559V57.39a2.155,2.155,0,0,0,.463,1.559,2.1,2.1,0,0,0,1.524.462h2.33A1.705,1.705,0,0,0,735,57.39v-1.4q0-.753.719-.754H738.6a.667.667,0,0,1,.754.754V57.6a5.508,5.508,0,0,1-1.49,4.128A5.7,5.7,0,0,1,733.7,63.18Z" transform="translate(-653.212 -41.152)" fill="#d8b97e"/>
        <path id="Path_5" data-name="Path 5" d="M905.11,63.18H902.2a.636.636,0,0,1-.719-.719V41.871a.636.636,0,0,1,.719-.719h2.912a.636.636,0,0,1,.719.719v8.05q0,.377.411.377h5.789a.333.333,0,0,0,.377-.377v-8.05a.636.636,0,0,1,.719-.719h2.912a.636.636,0,0,1,.719.719V62.46a.636.636,0,0,1-.719.719h-2.912a.636.636,0,0,1-.719-.719V54.444a.333.333,0,0,0-.377-.377h-5.789q-.411,0-.411.377V62.46A.636.636,0,0,1,905.11,63.18Z" transform="translate(-812.978 -41.152)" fill="#d8b97e"/>
        <path id="Path_6" data-name="Path 6" d="M1077.34,63.18h-3.289q-.617,0-.411-.719l5.413-20.589a.983.983,0,0,1,1.028-.719h4.556a.922.922,0,0,1,1.028.719l5.413,20.589q.206.719-.411.719h-3.289a.673.673,0,0,1-.514-.154,1.167,1.167,0,0,1-.205-.565l-.959-3.768h-6.68l-.959,3.768a1.058,1.058,0,0,1-.223.565A.682.682,0,0,1,1077.34,63.18Zm4.967-17.882-2.467,9.9h5.07l-2.467-9.9Z" transform="translate(-968.181 -41.152)" fill="#d8b97e"/>
        <path id="Path_7" data-name="Path 7" d="M1272.28,63.18h-2.843a.636.636,0,0,1-.719-.719V41.871a.636.636,0,0,1,.719-.719h2.569a.967.967,0,0,1,.959.48l6.92,12.984h.137V41.871a.636.636,0,0,1,.719-.719h2.843a.636.636,0,0,1,.719.719V62.46a.636.636,0,0,1-.719.719h-2.5a1.145,1.145,0,0,1-1.1-.685l-6.851-12.744H1273V62.46A.636.636,0,0,1,1272.28,63.18Z" transform="translate(-1144.143 -41.152)" fill="#d8b97e"/>
        <path id="Path_8" data-name="Path 8" d="M1464.585,63.18h-3.631a5.732,5.732,0,0,1-4.179-1.439A5.533,5.533,0,0,1,1455.3,57.6V46.736a5.534,5.534,0,0,1,1.473-4.145,5.732,5.732,0,0,1,4.179-1.439h3.631a5.645,5.645,0,0,1,4.145,1.456,5.547,5.547,0,0,1,1.473,4.128v1.028q0,.754-.719.754h-2.912q-.72,0-.719-.754v-.822a2.213,2.213,0,0,0-.445-1.559,2.091,2.091,0,0,0-1.542-.463h-2.227a2.1,2.1,0,0,0-1.524.463,2.155,2.155,0,0,0-.463,1.559V57.39a2.155,2.155,0,0,0,.463,1.559,2.1,2.1,0,0,0,1.524.462h2.227a2.091,2.091,0,0,0,1.542-.462,2.212,2.212,0,0,0,.445-1.559V55.232a.333.333,0,0,0-.377-.377h-2.055a.636.636,0,0,1-.719-.719v-2.33a.636.636,0,0,1,.719-.719h5.995a.7.7,0,0,1,.788.788V57.6a5.546,5.546,0,0,1-1.473,4.128A5.643,5.643,0,0,1,1464.585,63.18Z" transform="translate(-1312.4 -41.152)" fill="#d8b97e"/>
        <path id="Path_9" data-name="Path 9" d="M1646.833,63.18h-11.2a.636.636,0,0,1-.719-.719V41.871a.636.636,0,0,1,.719-.719h11.2q.685,0,.685.719V44.2q0,.719-.685.719h-7.16q-.411,0-.411.377v4.454q0,.377.411.377h5.858a.636.636,0,0,1,.719.719v2.33a.636.636,0,0,1-.719.719h-5.858q-.411,0-.411.377v4.762q0,.377.411.377h7.16q.685,0,.685.719v2.33Q1647.518,63.18,1646.833,63.18Z" transform="translate(-1474.367 -41.152)" fill="#d8b97e"/>
      </g>
      <g id="Group_5" data-name="Group 5" transform="translate(45.308 0)">
        <g id="Group_4" data-name="Group 4">
          <g id="Group_2" data-name="Group 2">
            <path id="Path_10" data-name="Path 10" d="M466.562,26.158h-4.816L477.545,0h4.816Z" transform="translate(-461.746 0)" fill="#d8b97e"/>
          </g>
          <g id="Group_3" data-name="Group 3" transform="translate(5.77)">
            <path id="Path_11" data-name="Path 11" d="M525.438,26.158h-4.946L536.291,0h4.946Z" transform="translate(-520.492 0)" fill="#d8b97e"/>
          </g>
          <path id="Path_12" data-name="Path 12" d="M617.794,156.243l-7.24-11.988-5.312,8.65,2.016,3.337Z" transform="translate(-591.147 -130.085)" fill="#d8b97e"/>
          <path id="Path_13" data-name="Path 13" d="M476.58,3.072,474.725,0H464.273l7.081,11.724Z" transform="translate(-464.025 0)" fill="#d8b97e"/>
        </g>
      </g>
    </g>
    <g id="logotm" transform="translate(175.581 4.201)">
      <path id="Path_14" data-name="Path 14" d="M1790.166,42.766v.41h-.858v2.3h-.456v-2.3H1788v-.41Z" transform="translate(-1787.998 -42.766)"/>
      <path id="Path_15" data-name="Path 15" d="M1814.591,42.766l.893,1.8.889-1.8h.537v2.705h-.421l0-2.021-.854,1.739h-.3l-.854-1.739v2.021h-.429V42.766Z" transform="translate(-1811.491 -42.766)"/>
    </g>
  </g>
</svg>
