<svg xmlns="http://www.w3.org/2000/svg" width="24.302" height="24.305" viewBox="0 0 24.302 24.305">
  <path id="Path_636" data-name="Path 636" d="M161.212,19.748a4.559,4.559,0,0,1-4.557,4.557H141.467a4.559,4.559,0,0,1-4.557-4.557V4.557A4.559,4.559,0,0,1,141.467,0h15.188a4.559,4.559,0,0,1,4.557,4.557ZM155.249,8.166a3.369,3.369,0,0,0,1.472-1.85,6.563,6.563,0,0,1-2.12.807A3.323,3.323,0,0,0,148.859,9.4a3.03,3.03,0,0,0,.078.759,9.432,9.432,0,0,1-6.866-3.481,3.375,3.375,0,0,0-.459,1.676,3.275,3.275,0,0,0,1.439,2.77,3.974,3.974,0,0,1-1.583-.411v.033a3.383,3.383,0,0,0,2.737,3.259,2.808,2.808,0,0,1-.807.126,4.274,4.274,0,0,1-.618-.063,3.347,3.347,0,0,0,3.1,2.311,6.684,6.684,0,0,1-4.128,1.424,6.238,6.238,0,0,1-.791-.048,9.463,9.463,0,0,0,14.555-7.975,4.081,4.081,0,0,0-.015-.428,6.4,6.4,0,0,0,1.661-1.724A7.148,7.148,0,0,1,155.249,8.166Z" transform="translate(-136.91)" fill="#d0ad6a"/>
</svg>
