<svg id="Group_859" data-name="Group 859" xmlns="http://www.w3.org/2000/svg" width="356.555" height="42.136" viewBox="0 0 356.555 42.136">
  <g id="Group_1" data-name="Group 1" transform="translate(346.661 6.532)">
    <path id="Path_1" data-name="Path 1" d="M1596.1,267v.653h-1.571v4.421h-.724v-4.421h-1.558V267Zm1.667,0,1.751,3.564,1.74-3.564h.882v5.073h-.665v-4.058l-1.727,3.527h-.46l-1.727-3.527v4.058h-.665V267Z" transform="translate(-1592.244 -267)" fill="#d0ad6a"/>
  </g>
  <g id="Group_2" data-name="Group 2" transform="translate(0 6.512)">
    <path id="Path_2" data-name="Path 2" d="M304.451,297.113v-1.938a.524.524,0,0,1,.592-.593H306.6a.524.524,0,0,1,.592.593v1.777q0,5.384,5.222,5.384h5.6q5.221,0,5.222-5.438v-2.261a4.28,4.28,0,0,0-1.938-3.715,12.9,12.9,0,0,0-4.684-1.938q-2.746-.592-5.518-1.239a10.553,10.553,0,0,1-4.711-2.369,5.885,5.885,0,0,1-1.938-4.63v-2.961a7.065,7.065,0,0,1,7.591-7.645h6.245a7.065,7.065,0,0,1,7.591,7.645v1.508a.523.523,0,0,1-.592.592h-1.561a.523.523,0,0,1-.592-.592v-1.346q0-5.383-5.222-5.384h-5.545q-5.168,0-5.168,5.491v2.692q0,3.715,6.622,5.007,2.746.539,5.518,1.238a10.459,10.459,0,0,1,4.711,2.53,6.489,6.489,0,0,1,1.938,4.953v2.638a7.065,7.065,0,0,1-7.591,7.645h-6.353a7.065,7.065,0,0,1-7.591-7.645Z" transform="translate(-304.451 -269.275)" fill="#d0ad6a"/>
    <path id="Path_3" data-name="Path 3" d="M411.75,304.758h-1.561q-.539,0-.538-.646V270.786q0-.646.538-.646h12.383a7.066,7.066,0,0,1,7.591,7.645v6.3a7.066,7.066,0,0,1-7.591,7.645H412.88q-.539,0-.538.43v11.952Q412.342,304.757,411.75,304.758Zm1.131-15.505h9.476a4.931,4.931,0,0,0,3.769-1.373,5.477,5.477,0,0,0,1.292-3.9v-6.084a5.561,5.561,0,0,0-1.292-3.957,4.931,4.931,0,0,0-3.769-1.373H412.88q-.539,0-.538.484v15.775Q412.342,289.253,412.88,289.253Z" transform="translate(-381.332 -269.275)" fill="#d0ad6a"/>
    <path id="Path_4" data-name="Path 4" d="M518.607,304.758h-6.622a7.4,7.4,0,0,1-5.518-2.046,7.624,7.624,0,0,1-2.019-5.6V277.785a7.624,7.624,0,0,1,2.019-5.6,7.4,7.4,0,0,1,5.518-2.046h6.622a7.4,7.4,0,0,1,5.518,2.046,7.625,7.625,0,0,1,2.019,5.6v19.328a7.624,7.624,0,0,1-2.019,5.6A7.4,7.4,0,0,1,518.607,304.758Zm-6.407-2.423h6.137a5.022,5.022,0,0,0,3.8-1.373A5.49,5.49,0,0,0,523.453,297V277.892a5.489,5.489,0,0,0-1.319-3.957,5.021,5.021,0,0,0-3.8-1.373H512.2a4.876,4.876,0,0,0-3.769,1.4,5.58,5.58,0,0,0-1.292,3.93V297a5.577,5.577,0,0,0,1.292,3.93A4.873,4.873,0,0,0,512.2,302.335Z" transform="translate(-450.611 -269.275)" fill="#d0ad6a"/>
    <path id="Path_5" data-name="Path 5" d="M611.146,304.758h-1.561q-.539,0-.538-.646V270.786q0-.646.538-.646h12.275a7.065,7.065,0,0,1,7.591,7.645V282.9a7.735,7.735,0,0,1-1.534,4.953,6.877,6.877,0,0,1-4.173,2.477v.215l6.407,13.567q.324.646-.377.646H628.1a.97.97,0,0,1-.969-.646l-6.353-13.567h-8.506q-.539,0-.538.485v13.083Q611.738,304.757,611.146,304.758Zm1.131-16.528h9.314a5.112,5.112,0,0,0,3.822-1.373,5.343,5.343,0,0,0,1.346-3.9v-5.061a5.442,5.442,0,0,0-1.346-3.93,5.057,5.057,0,0,0-3.822-1.4h-9.314q-.539,0-.538.484v14.7Q611.738,288.23,612.276,288.23Z" transform="translate(-527.052 -269.275)" fill="#d0ad6a"/>
    <path id="Path_6" data-name="Path 6" d="M705.591,304.758h-1.562q-.593,0-.592-.646V273.047c0-.323-.18-.484-.538-.484h-7.807q-.646,0-.646-.593v-1.238q0-.592.646-.592h19.382q.646,0,.646.592v1.238q0,.593-.646.593h-7.807q-.539,0-.538.484v31.065Q706.129,304.757,705.591,304.758Z" transform="translate(-589.463 -269.275)" fill="#d0ad6a"/>
    <path id="Path_7" data-name="Path 7" d="M940.83,302.408h-6.015a9.234,9.234,0,0,1-6.732-2.318q-2.374-2.318-2.373-6.677V275.92q0-4.359,2.373-6.677a9.233,9.233,0,0,1,6.732-2.318h6.015a9.19,9.19,0,0,1,6.7,2.345,8.875,8.875,0,0,1,2.4,6.65v2.594a1.073,1.073,0,0,1-1.214,1.214h-4.636q-1.158,0-1.159-1.214v-2.263A2.747,2.747,0,0,0,939.671,273h-3.753a3.379,3.379,0,0,0-2.455.745,3.473,3.473,0,0,0-.745,2.511v16.831a3.47,3.47,0,0,0,.745,2.511,3.378,3.378,0,0,0,2.455.745h3.753a2.747,2.747,0,0,0,3.256-3.256v-2.263q0-1.212,1.159-1.214h4.636a1.073,1.073,0,0,1,1.214,1.214v2.594a8.873,8.873,0,0,1-2.4,6.65A9.185,9.185,0,0,1,940.83,302.408Z" transform="translate(-758.473 -266.925)" fill="#d0ad6a"/>
    <path id="Path_8" data-name="Path 8" d="M1035.7,302.408h-4.691a1.024,1.024,0,0,1-1.159-1.159V268.084a1.024,1.024,0,0,1,1.159-1.159h4.691a1.024,1.024,0,0,1,1.159,1.159v12.968q0,.608.662.607h9.326a.537.537,0,0,0,.607-.607V268.084a1.024,1.024,0,0,1,1.159-1.159h4.69a1.024,1.024,0,0,1,1.159,1.159v33.165a1.024,1.024,0,0,1-1.159,1.159h-4.69a1.024,1.024,0,0,1-1.159-1.159V288.336a.537.537,0,0,0-.607-.607h-9.326q-.662,0-.662.607v12.913A1.024,1.024,0,0,1,1035.7,302.408Z" transform="translate(-834.579 -266.925)" fill="#d0ad6a"/>
    <path id="Path_9" data-name="Path 9" d="M1137.055,302.408h-5.3q-.993,0-.662-1.159l8.719-33.165a1.584,1.584,0,0,1,1.656-1.159h7.339a1.485,1.485,0,0,1,1.656,1.159l8.719,33.165q.331,1.159-.662,1.159h-5.3a1.084,1.084,0,0,1-.828-.248,1.883,1.883,0,0,1-.331-.91l-1.545-6.07h-10.761l-1.545,6.07a1.7,1.7,0,0,1-.359.91A1.1,1.1,0,0,1,1137.055,302.408Zm8-28.806-3.974,15.948h8.167l-3.973-15.948Z" transform="translate(-908.511 -266.925)" fill="#d0ad6a"/>
    <path id="Path_10" data-name="Path 10" d="M1251.448,302.408h-4.58a1.024,1.024,0,0,1-1.159-1.159V268.084a1.024,1.024,0,0,1,1.159-1.159h4.139a1.558,1.558,0,0,1,1.545.773l11.147,20.915h.221V268.084a1.024,1.024,0,0,1,1.159-1.159h4.58a1.024,1.024,0,0,1,1.159,1.159v33.165a1.024,1.024,0,0,1-1.159,1.159h-4.028a1.843,1.843,0,0,1-1.766-1.1l-11.037-20.528h-.221v20.473A1.024,1.024,0,0,1,1251.448,302.408Z" transform="translate(-992.332 -266.925)" fill="#d0ad6a"/>
    <path id="Path_11" data-name="Path 11" d="M1370.337,302.408h-5.849a9.235,9.235,0,0,1-6.733-2.318q-2.373-2.318-2.373-6.677V275.92q0-4.359,2.373-6.677a9.234,9.234,0,0,1,6.733-2.318h5.849a9.092,9.092,0,0,1,6.677,2.345,8.935,8.935,0,0,1,2.373,6.65v1.656q0,1.215-1.159,1.214h-4.691q-1.159,0-1.159-1.214v-1.324a3.565,3.565,0,0,0-.718-2.511,3.368,3.368,0,0,0-2.483-.745h-3.588a3.379,3.379,0,0,0-2.455.745,3.472,3.472,0,0,0-.745,2.511v16.831a3.469,3.469,0,0,0,.745,2.511,3.378,3.378,0,0,0,2.455.745h3.588a3.367,3.367,0,0,0,2.483-.745,3.563,3.563,0,0,0,.718-2.511v-3.477a.537.537,0,0,0-.607-.607h-3.312a1.024,1.024,0,0,1-1.159-1.159v-3.752a1.024,1.024,0,0,1,1.159-1.159h9.657a1.122,1.122,0,0,1,1.269,1.269v9.216a8.933,8.933,0,0,1-2.373,6.65A9.088,9.088,0,0,1,1370.337,302.408Z" transform="translate(-1072.482 -266.925)" fill="#d0ad6a"/>
    <path id="Path_12" data-name="Path 12" d="M1480.161,302.408h-18.045a1.024,1.024,0,0,1-1.159-1.159V268.084a1.024,1.024,0,0,1,1.159-1.159h18.045q1.1,0,1.1,1.159v3.753q0,1.159-1.1,1.159h-11.534q-.662,0-.662.607v7.174q0,.608.662.607h9.437a1.024,1.024,0,0,1,1.159,1.159v3.753a1.024,1.024,0,0,1-1.159,1.159h-9.437q-.662,0-.662.607v7.671c0,.405.22.607.662.607h11.534q1.1,0,1.1,1.159v3.753Q1481.265,302.408,1480.161,302.408Z" transform="translate(-1149.638 -266.925)" fill="#d0ad6a"/>
    <path id="Path_13" data-name="Path 13" d="M1546.474,382.7v3.616q0,.419-.389.418h-1.523q-.389,0-.389-.418V382.7a.344.344,0,0,1,.389-.388h1.523A.344.344,0,0,1,1546.474,382.7Z" transform="translate(-1210.453 -351.251)" fill="#d0ad6a"/>
    <path id="Path_14" data-name="Path 14" d="M1562.93,324.045v-2.809q0-.418.389-.418h1.374a.37.37,0,0,1,.418.418v2.809a.37.37,0,0,1-.418.418h-1.374Q1562.93,324.463,1562.93,324.045Zm0,17.33v-14.4q0-.418.389-.418h1.374a.37.37,0,0,1,.418.418v14.4a.37.37,0,0,1-.418.418h-1.344A.37.37,0,0,1,1562.93,341.375Z" transform="translate(-1224.16 -306.311)" fill="#d0ad6a"/>
    <path id="Path_15" data-name="Path 15" d="M1590.444,346.58h-3.556a4.413,4.413,0,0,1-3.242-1.166,4.369,4.369,0,0,1-1.18-3.257V331.789a4.063,4.063,0,0,1,4.422-4.422h3.556a4.083,4.083,0,0,1,4.422,4.422v10.368a4.083,4.083,0,0,1-4.422,4.422Zm-3.317-1.912h3.047q2.511,0,2.51-2.6V331.879q0-2.6-2.51-2.6h-3.047q-2.48,0-2.48,2.6v10.189Q1584.647,344.667,1587.127,344.668Z" transform="translate(-1238.438 -311.097)" fill="#d0ad6a"/>
  </g>
  <g id="Group_3" data-name="Group 3" transform="translate(123.968 0)">
    <path id="Path_16" data-name="Path 16" d="M772.734,284.871h-7.758l25.449-42.136h7.758Z" transform="translate(-764.976 -242.736)" fill="#d0ad6a"/>
    <path id="Path_17" data-name="Path 17" d="M807.474,284.871h-7.968l25.449-42.136h7.968Z" transform="translate(-790.211 -242.736)" fill="#d0ad6a"/>
    <path id="Path_18" data-name="Path 18" d="M869.542,346.839l-11.663-19.311-8.557,13.935,3.247,5.376Z" transform="translate(-826.617 -304.703)" fill="#d0ad6a"/>
    <path id="Path_19" data-name="Path 19" d="M786.286,247.684l-2.989-4.949H766.462l11.406,18.886Z" transform="translate(-766.062 -242.736)" fill="#d0ad6a"/>
  </g>
</svg>
