<svg xmlns="http://www.w3.org/2000/svg" width="492.401" height="71.16" viewBox="0 0 492.401 71.16" class="horizontal-logo">
  <g id="Group_1201" data-name="Group 1201" transform="translate(-0.489)">
    <g id="Group_1199" data-name="Group 1199" transform="translate(0.489 0)">
      <g id="logotext" data-name="Group 1194" transform="translate(0 10.997)">
        <path id="Path_1627" data-name="Path 1627" d="M19.31,105.085H16.673q-1,0-1-1.091V51.531c0-.546-.3-.819-.909-.819H1.58q-1.091,0-1.091-1V47.621q0-1,1.091-1H34.312q1.091,0,1.091,1v2.091q0,1-1.091,1H21.129q-.91,0-.909.819v52.462Q20.219,105.085,19.31,105.085Z" transform="translate(-0.489 -45.16)"/>
        <path id="Path_1628" data-name="Path 1628" d="M156.129,105.085h-2.637q-.91,0-.909-1.091V47.712q0-1.091.909-1.091h2.637q1,0,1,1.091V72.534q0,.818.909.818H183.5c.605,0,.909-.273.909-.818V47.712q0-1.091.909-1.091h2.637q1,0,1,1.091v56.281q0,1.091-1,1.091h-2.637q-.91,0-.909-1.091V78.262c0-.546-.3-.818-.909-.818H158.038q-.91,0-.909.818v25.731Q157.129,105.085,156.129,105.085Z" transform="translate(-111.94 -45.16)"/>
        <path id="Path_1629" data-name="Path 1629" d="M361.918,105.085h-28.1q-.91,0-.909-1.091V47.712q0-1.091.909-1.091h28.1q1.091,0,1.091,1v2.091q0,1-1.091,1H338.369q-.91,0-.909.819V72.443q0,.818.909.818h21a.884.884,0,0,1,1,1v2.091a.884.884,0,0,1-1,1h-21q-.91,0-.909.818v22q0,.818.909.818h23.549q1.091,0,1.091,1v2.091Q363.009,105.086,361.918,105.085Z" transform="translate(-244.083 -45.16)"/>
        <path id="Path_1630" data-name="Path 1630" d="M749.847,101.077H739.688q-7.363,0-11.37-3.914t-4.007-11.277V56.343q0-7.361,4.007-11.277t11.37-3.914h10.158q7.269,0,11.323,3.961t4.054,11.23v4.38a1.813,1.813,0,0,1-2.05,2.051h-7.828q-1.957,0-1.957-2.051V56.9q0-2.982-1.258-4.241T747.889,51.4h-6.337a5.708,5.708,0,0,0-4.147,1.258q-1.258,1.258-1.258,4.241V85.327q0,2.984,1.258,4.241a5.708,5.708,0,0,0,4.147,1.258h6.337q2.982,0,4.241-1.258t1.258-4.241V81.506q0-2.049,1.957-2.05h7.828a1.813,1.813,0,0,1,2.05,2.05v4.38q0,7.269-4.054,11.23T749.847,101.077Z" transform="translate(-530.891 -41.152)" fill="#d8b97e"/>
        <path id="Path_1631" data-name="Path 1631" d="M911.358,101.077h-7.922a1.73,1.73,0,0,1-1.957-1.957V43.109a1.73,1.73,0,0,1,1.957-1.957h7.922a1.73,1.73,0,0,1,1.957,1.957v21.9q0,1.027,1.119,1.025h15.75a.906.906,0,0,0,1.025-1.025v-21.9a1.73,1.73,0,0,1,1.958-1.957h7.921a1.73,1.73,0,0,1,1.957,1.957V99.12a1.73,1.73,0,0,1-1.957,1.957h-7.921a1.73,1.73,0,0,1-1.958-1.957V77.312a.906.906,0,0,0-1.025-1.025h-15.75q-1.118,0-1.119,1.025V99.12A1.73,1.73,0,0,1,911.358,101.077Z" transform="translate(-660.716 -41.152)" fill="#d8b97e"/>
        <path id="Path_1632" data-name="Path 1632" d="M1083.794,101.077h-8.947q-1.677,0-1.118-1.957l14.725-56.011a2.675,2.675,0,0,1,2.8-1.957h12.4a2.509,2.509,0,0,1,2.8,1.957l14.725,56.011q.559,1.957-1.118,1.957H1111.1a1.829,1.829,0,0,1-1.4-.419,3.174,3.174,0,0,1-.559-1.538l-2.609-10.252H1088.36l-2.609,10.252a2.876,2.876,0,0,1-.606,1.538A1.855,1.855,0,0,1,1083.794,101.077Zm13.513-48.648-6.71,26.933h13.793l-6.71-26.933Z" transform="translate(-786.834 -41.152)" fill="#d8b97e"/>
        <path id="Path_1633" data-name="Path 1633" d="M1278.409,101.077h-7.735a1.73,1.73,0,0,1-1.957-1.957V43.109a1.73,1.73,0,0,1,1.957-1.957h6.99a2.631,2.631,0,0,1,2.609,1.3L1299.1,77.778h.373V43.109a1.73,1.73,0,0,1,1.957-1.957h7.735a1.73,1.73,0,0,1,1.957,1.957V99.12a1.73,1.73,0,0,1-1.957,1.957h-6.8a3.114,3.114,0,0,1-2.982-1.864l-18.639-34.669h-.373V99.12A1.73,1.73,0,0,1,1278.409,101.077Z" transform="translate(-929.82 -41.152)" fill="#d8b97e"/>
        <path id="Path_1634" data-name="Path 1634" d="M1480.557,101.077h-9.879q-7.363,0-11.37-3.914T1455.3,85.886V56.343q0-7.361,4.007-11.277t11.37-3.914h9.879q7.269,0,11.277,3.961t4.007,11.23v2.8q0,2.051-1.957,2.05h-7.922q-1.957,0-1.957-2.05V56.9q0-2.982-1.212-4.241T1478.6,51.4h-6.058a5.707,5.707,0,0,0-4.147,1.258q-1.258,1.258-1.258,4.241V85.327q0,2.984,1.258,4.241a5.707,5.707,0,0,0,4.147,1.258h6.058q2.981,0,4.194-1.258t1.212-4.241V79.455a.907.907,0,0,0-1.025-1.025h-5.592a1.73,1.73,0,0,1-1.957-1.957V70.136a1.73,1.73,0,0,1,1.957-1.957H1493.7a1.9,1.9,0,0,1,2.143,2.144V85.886q0,7.269-4.007,11.23T1480.557,101.077Z" transform="translate(-1066.545 -41.152)" fill="#d8b97e"/>
        <path id="Path_1635" data-name="Path 1635" d="M1667.343,101.077h-30.475a1.73,1.73,0,0,1-1.957-1.957V43.109a1.73,1.73,0,0,1,1.957-1.957h30.475q1.863,0,1.864,1.957v6.337q0,1.957-1.864,1.957h-19.478q-1.118,0-1.119,1.025V64.544q0,1.027,1.119,1.025H1663.8a1.73,1.73,0,0,1,1.957,1.957v6.337a1.73,1.73,0,0,1-1.957,1.957h-15.936q-1.118,0-1.119,1.025V89.8q0,1.027,1.119,1.025h19.478q1.863,0,1.864,1.957V99.12Q1669.207,101.077,1667.343,101.077Z" transform="translate(-1198.16 -41.152)" fill="#d8b97e"/>
      </g>
      <g id="Group_1198" data-name="Group 1198" transform="translate(123.257)">
        <g id="Group_1197" data-name="Group 1197">
          <g id="Group_1195" data-name="Group 1195">
            <path id="Path_1636" data-name="Path 1636" d="M474.849,71.16h-13.1L504.725,0h13.1Z" transform="translate(-461.746 0)" fill="#d8b97e"/>
          </g>
          <g id="Group_1196" data-name="Group 1196" transform="translate(15.698)">
            <path id="Path_1637" data-name="Path 1637" d="M533.948,71.16H520.492L563.471,0h13.456Z" transform="translate(-520.492 0)" fill="#d8b97e"/>
          </g>
          <path id="Path_1638" data-name="Path 1638" d="M639.389,176.867l-19.7-32.612-14.45,23.533,5.484,9.079Z" transform="translate(-566.897 -105.707)" fill="#d8b97e"/>
          <path id="Path_1639" data-name="Path 1639" d="M497.753,8.358,492.705,0H464.273l19.264,31.895Z" transform="translate(-463.598 0)" fill="#d8b97e"/>
        </g>
      </g>
    </g>
    <g id="logotm" data-name="Group 1200" transform="translate(478.148 11.428)">
      <path id="Path_1640" data-name="Path 1640" d="M1793.9,42.766V43.88h-2.334v6.245h-1.24V43.88H1788V42.766Z" transform="translate(-1787.998 -42.766)"/>
      <path id="Path_1641" data-name="Path 1641" d="M1815.521,42.766l2.429,4.889,2.418-4.889h1.461v7.359h-1.146l-.011-5.5-2.323,4.731h-.809l-2.323-4.731v5.5h-1.167V42.766Z" transform="translate(-1807.089 -42.766)"/>
    </g>
  </g>
</svg>
