<svg xmlns="http://www.w3.org/2000/svg" xmlns:xlink="http://www.w3.org/1999/xlink" width="264.786" height="288" viewBox="0 0 264.786 288">
  <defs>
    <linearGradient id="linear-gradient" x1="-0.141" y1="0.81" x2="2.768" y2="-0.598" gradientUnits="objectBoundingBox">
      <stop offset="0" stop-color="#fdedc9"/>
      <stop offset="0.042" stop-color="#fae9c4"/>
      <stop offset="0.091" stop-color="#f4e0b6"/>
      <stop offset="0.142" stop-color="#e9d09f"/>
      <stop offset="0.196" stop-color="#dabb7f"/>
      <stop offset="0.225" stop-color="#d0ad6a"/>
      <stop offset="0.243" stop-color="#d6b677"/>
      <stop offset="0.288" stop-color="#e4c994"/>
      <stop offset="0.337" stop-color="#efd9ab"/>
      <stop offset="0.389" stop-color="#f6e4bc"/>
      <stop offset="0.447" stop-color="#fbeac5"/>
      <stop offset="0.523" stop-color="#fdedc9"/>
      <stop offset="0.562" stop-color="#fae9c4"/>
      <stop offset="0.608" stop-color="#f4e0b6"/>
      <stop offset="0.656" stop-color="#e9d09f"/>
      <stop offset="0.707" stop-color="#dabb7f"/>
      <stop offset="0.734" stop-color="#d0ad6a"/>
      <stop offset="0.89" stop-color="#b18a4b"/>
      <stop offset="1" stop-color="#9a7034"/>
    </linearGradient>
    <linearGradient id="linear-gradient-2" x1="-0.35" y1="0.914" x2="2.541" y2="-0.494" xlink:href="#linear-gradient"/>
    <linearGradient id="linear-gradient-3" x1="-0.861" y1="1.529" x2="4.05" y2="-1.684" xlink:href="#linear-gradient"/>
    <linearGradient id="linear-gradient-4" x1="-0.715" y1="1.158" x2="4.3" y2="-2.133" xlink:href="#linear-gradient"/>
  </defs>
  <g id="Group_974" data-name="Group 974" transform="translate(-0.876 -13)">
    <g id="Group_894" data-name="Group 894" transform="translate(0.876 13)">
      <g id="logotext" transform="translate(0 252.698)">
        <path id="Path_1439" data-name="Path 1439" d="M11.527,972.229h-.769q-.44,0-.439-.494V938.9q0-.438-.494-.439H1.37c-.33,0-.494-.146-.494-.439v-.659c0-.292.165-.439.494-.439H20.915c.329,0,.494.147.494.439v.659c0,.294-.165.439-.494.439H12.46q-.494,0-.494.439v32.832Q11.966,972.229,11.527,972.229Z" transform="translate(-0.876 -936.927)"/>
        <path id="Path_1440" data-name="Path 1440" d="M91.209,972.229H90.44c-.293,0-.439-.165-.439-.494V937.421c0-.329.146-.494.439-.494h.769q.439,0,.439.494v15.592c0,.293.165.439.494.439h17.019c.329,0,.494-.146.494-.439V937.421c0-.329.146-.494.439-.494h.769q.439,0,.439.494v34.314q0,.494-.439.494H110.1c-.293,0-.439-.165-.439-.494V955.429q0-.439-.494-.439H92.142q-.495,0-.494.439v16.306Q91.648,972.229,91.209,972.229Z" transform="translate(-65.625 -936.927)"/>
        <path id="Path_1441" data-name="Path 1441" d="M213.115,972.229h-16.69c-.293,0-.439-.165-.439-.494V937.421c0-.329.146-.494.439-.494h16.69c.33,0,.494.147.494.439v.659c0,.294-.165.439-.494.439H198.127q-.494,0-.494.439v14.11c0,.293.165.439.494.439h13.561c.329,0,.494.147.494.439v.659c0,.294-.165.439-.494.439H198.127q-.494,0-.494.439v14.823c0,.294.165.439.494.439h14.988q.494,0,.494.439v.659C213.609,972.083,213.445,972.229,213.115,972.229Z" transform="translate(-142.623 -936.927)"/>
        <path id="Path_1442" data-name="Path 1442" d="M276.618,972.229h-4.063a.714.714,0,0,1-.631-.275.671.671,0,0,1,.028-.714l9.059-17.294-8.674-16.031a.624.624,0,0,1-.027-.686.69.69,0,0,1,.631-.3h3.9a1.562,1.562,0,0,1,1.537.934l6.314,12.737h.219l6.314-12.737a1.55,1.55,0,0,1,1.428-.934h4.063a.674.674,0,0,1,.631.329.756.756,0,0,1,.028.713l-8.784,15.977,9.059,17.239a.78.78,0,0,1,.055.741.681.681,0,0,1-.659.3h-4.118a1.3,1.3,0,0,1-1.263-.879l-6.753-13.4h-.219l-6.753,13.4A1.34,1.34,0,0,1,276.618,972.229Z" transform="translate(-197.726 -936.927)"/>
        <path id="Path_1443" data-name="Path 1443" d="M391.52,972.229h-6.369a7.772,7.772,0,0,1-8.51-8.51V945.437a7.738,7.738,0,0,1,8.51-8.51h6.369a7.772,7.772,0,0,1,8.51,8.51v2.635a.874.874,0,0,1-.988.988h-3.459q-.934,0-.933-.988v-2.416q0-4.062-3.953-4.063H385.92q-3.953,0-3.953,4.063V963.5q0,4.064,3.953,4.063H390.7q3.953,0,3.953-4.063v-2.415q0-.989.933-.989h3.459a.874.874,0,0,1,.988.989v2.635a7.806,7.806,0,0,1-8.51,8.51Z" transform="translate(-273.868 -936.927)"/>
        <path id="Path_1444" data-name="Path 1444" d="M483.407,972.229h-3.459a.824.824,0,0,1-.933-.933V937.861a.825.825,0,0,1,.933-.934h3.459a.825.825,0,0,1,.933.934v13.725q0,.549.659.549h11.584a.485.485,0,0,0,.549-.549V937.861a.825.825,0,0,1,.933-.934h3.514a.825.825,0,0,1,.933.934V971.3a.825.825,0,0,1-.933.933h-3.514a.824.824,0,0,1-.933-.933v-13.89a.486.486,0,0,0-.549-.549H485q-.658,0-.659.549V971.3A.825.825,0,0,1,483.407,972.229Z" transform="translate(-348.242 -936.927)"/>
        <path id="Path_1445" data-name="Path 1445" d="M581.142,972.229h-3.953q-.769,0-.549-.933l9.553-33.435a1.232,1.232,0,0,1,1.318-.934H593a1.184,1.184,0,0,1,1.318.934l9.553,33.435q.219.934-.6.933h-3.9a.959.959,0,0,1-.687-.192,1.491,1.491,0,0,1-.3-.741l-2.086-7.137H584.216L582.13,971.3Q581.91,972.23,581.142,972.229Zm9-30.032-4.831,17.569h9.937L590.365,942.2Z" transform="translate(-419.13 -936.927)"/>
        <path id="Path_1446" data-name="Path 1446" d="M692.512,972.229h-3.4a.824.824,0,0,1-.933-.933V937.861a.825.825,0,0,1,.933-.934h3.075a1.253,1.253,0,0,1,1.208.6l13.286,23.882h.219V937.861a.825.825,0,0,1,.933-.934h3.4a.826.826,0,0,1,.934.934V971.3a.825.825,0,0,1-.934.933h-2.965a1.634,1.634,0,0,1-1.427-.879l-13.176-23.608h-.22V971.3A.825.825,0,0,1,692.512,972.229Z" transform="translate(-500.196 -936.927)"/>
        <path id="Path_1447" data-name="Path 1447" d="M809.549,972.229h-5.875a7.772,7.772,0,0,1-8.51-8.51V945.437a7.738,7.738,0,0,1,8.51-8.51h5.875a7.738,7.738,0,0,1,8.51,8.51v1.977q0,.988-.933.988h-3.459q-.934,0-.933-.988v-1.757q0-4.062-3.953-4.063h-4.337q-3.953,0-3.953,4.063V963.5q0,4.064,3.953,4.063h4.337q3.953,0,3.953-4.063v-4.941c0-.365-.2-.549-.6-.549h-4.447a.824.824,0,0,1-.933-.933v-2.8a.825.825,0,0,1,.933-.933h9.223a1.019,1.019,0,0,1,1.153,1.153v9.223a7.806,7.806,0,0,1-8.51,8.51Z" transform="translate(-577.924 -936.927)"/>
        <path id="Path_1448" data-name="Path 1448" d="M916.643,972.229H899.075a.824.824,0,0,1-.933-.933V937.861a.825.825,0,0,1,.933-.934h17.568q.878,0,.878.934v2.8q0,.934-.878.933H904.126q-.658,0-.659.549v9.278q0,.549.659.549h10.6q.988,0,.988.933v2.8q0,.934-.988.933h-10.6q-.658,0-.659.549v9.773q0,.6.659.6h12.518q.878,0,.878.933v2.8Q917.522,972.23,916.643,972.229Z" transform="translate(-652.736 -936.927)"/>
      </g>
      <path id="Path_1449" data-name="Path 1449" d="M116.268,233.375H75.69L208.792,13H249.37Z" transform="translate(-55.228 -13)" fill="#d3b37f"/>
      <path id="Path_1450" data-name="Path 1450" d="M295.112,233.375H253.441L386.543,13h41.672Z" transform="translate(-184.363 -13)" fill="#d3b37f"/>
      <path id="Path_1451" data-name="Path 1451" d="M615.623,550.475l-61-101-44.751,72.879,16.983,28.118Z" transform="translate(-370.66 -330.099)" fill="#d3b37f"/>
      <path id="Path_1452" data-name="Path 1452" d="M187.021,38.883,171.388,13H83.338L143,111.775Z" transform="translate(-60.784 -13)" fill="#d3b37f"/>
      <g id="Group_893" data-name="Group 893" transform="translate(22.921 1.388)">
        <path id="Path_1453" data-name="Path 1453" d="M84.68,235.674l131.426-217.6h37.336l-131.426,217.6Z" transform="translate(-84.68 -18.073)" fill="url(#linear-gradient)"/>
        <path id="Path_1454" data-name="Path 1454" d="M262.434,235.674l131.425-217.6h38.43l-131.426,217.6Z" transform="translate(-213.817 -18.073)" fill="url(#linear-gradient-2)"/>
        <path id="Path_1455" data-name="Path 1455" d="M531.953,556.173l-16.141-26.725,43.116-70.217,58.551,96.942Z" transform="translate(-397.896 -338.573)" fill="url(#linear-gradient-3)"/>
        <path id="Path_1456" data-name="Path 1456" d="M92.327,18.073h84.809l14.794,24.5-42.4,70.208Z" transform="translate(-90.235 -18.073)" fill="url(#linear-gradient-4)"/>
      </g>
    </g>
    <g id="logotm" transform="translate(234.61 202.946)">
      <path id="Path_1457" data-name="Path 1457" d="M859.884,707.492v.99h-1.646v4.631H857.1v-4.631h-1.633v-.99Zm2.075,0,1.713,3.573,1.713-3.573H866.7v5.621h-1.031v-3.975l-1.619,3.4h-.75l-1.606-3.4v3.975h-1.044v-5.621Z" transform="translate(-855.467 -707.492)"/>
    </g>
  </g>
</svg>
