<svg id="Group_974" data-name="Group 974" xmlns="http://www.w3.org/2000/svg" xmlns:xlink="http://www.w3.org/1999/xlink" width="201.185" height="218.824" viewBox="0 0 201.185 218.824">
  <defs>
    <linearGradient id="linear-gradient" x1="-0.141" y1="0.81" x2="2.768" y2="-0.598" gradientUnits="objectBoundingBox">
      <stop offset="0" stop-color="#fdedc9"/>
      <stop offset="0.042" stop-color="#fae9c4"/>
      <stop offset="0.091" stop-color="#f4e0b6"/>
      <stop offset="0.142" stop-color="#e9d09f"/>
      <stop offset="0.196" stop-color="#dabb7f"/>
      <stop offset="0.225" stop-color="#d0ad6a"/>
      <stop offset="0.243" stop-color="#d6b677"/>
      <stop offset="0.288" stop-color="#e4c994"/>
      <stop offset="0.337" stop-color="#efd9ab"/>
      <stop offset="0.389" stop-color="#f6e4bc"/>
      <stop offset="0.447" stop-color="#fbeac5"/>
      <stop offset="0.523" stop-color="#fdedc9"/>
      <stop offset="0.562" stop-color="#fae9c4"/>
      <stop offset="0.608" stop-color="#f4e0b6"/>
      <stop offset="0.656" stop-color="#e9d09f"/>
      <stop offset="0.707" stop-color="#dabb7f"/>
      <stop offset="0.734" stop-color="#d0ad6a"/>
      <stop offset="0.89" stop-color="#b18a4b"/>
      <stop offset="1" stop-color="#9a7034"/>
    </linearGradient>
    <linearGradient id="linear-gradient-2" x1="-0.35" y1="0.914" x2="2.541" y2="-0.494" xlink:href="#linear-gradient"/>
    <linearGradient id="linear-gradient-3" x1="-0.861" y1="1.529" x2="4.05" y2="-1.684" xlink:href="#linear-gradient"/>
    <linearGradient id="linear-gradient-4" x1="-0.715" y1="1.158" x2="4.3" y2="-2.133" xlink:href="#linear-gradient"/>
  </defs>
  <g id="Group_894" data-name="Group 894" transform="translate(0 0)">
    <g id="Group_892" data-name="Group 892" transform="translate(0 192.001)">
      <path id="Path_1439" data-name="Path 1439" d="M8.969,963.75H8.385q-.334,0-.334-.375V938.428q0-.333-.375-.333H1.252c-.251,0-.376-.111-.376-.334v-.5c0-.222.125-.334.376-.334H16.1c.25,0,.375.112.375.334v.5c0,.223-.125.334-.375.334H9.678q-.375,0-.375.333v24.946Q9.3,963.75,8.969,963.75Z" transform="translate(-0.876 -936.927)" fill="#fff"/>
      <path id="Path_1440" data-name="Path 1440" d="M90.919,963.75h-.584c-.223,0-.334-.125-.334-.375V937.3c0-.25.111-.375.334-.375h.584q.333,0,.334.375v11.847q0,.334.376.334h12.931q.375,0,.376-.334V937.3c0-.25.111-.375.334-.375h.584q.334,0,.334.375v26.072q0,.375-.334.375h-.584c-.223,0-.334-.125-.334-.375V950.985q0-.333-.376-.334H91.628q-.376,0-.376.334v12.389Q91.252,963.75,90.919,963.75Z" transform="translate(-71.48 -936.927)" fill="#fff"/>
      <path id="Path_1441" data-name="Path 1441" d="M209,963.75H196.32c-.223,0-.334-.125-.334-.375V937.3c0-.25.111-.375.334-.375H209c.25,0,.376.112.376.334v.5c0,.223-.125.334-.376.334H197.613q-.375,0-.375.333v10.721q0,.334.375.334h10.3c.25,0,.375.112.375.334v.5c0,.223-.125.334-.375.334h-10.3q-.375,0-.375.334v11.263c0,.223.125.334.375.334H209q.376,0,.376.334v.5C209.376,963.639,209.251,963.75,209,963.75Z" transform="translate(-155.44 -936.927)" fill="#fff"/>
      <path id="Path_1442" data-name="Path 1442" d="M275.469,963.75h-3.087a.542.542,0,0,1-.48-.209.509.509,0,0,1,.021-.542l6.883-13.14-6.591-12.181a.474.474,0,0,1-.021-.521.525.525,0,0,1,.48-.229h2.962a1.187,1.187,0,0,1,1.168.709l4.8,9.677h.167l4.8-9.677a1.177,1.177,0,0,1,1.085-.709h3.087a.512.512,0,0,1,.48.25.574.574,0,0,1,.021.542l-6.674,12.139,6.883,13.1a.593.593,0,0,1,.042.563.518.518,0,0,1-.5.229h-3.129a.99.99,0,0,1-.959-.668L281.767,952.9H281.6l-5.131,10.178A1.018,1.018,0,0,1,275.469,963.75Z" transform="translate(-215.526 -936.927)" fill="#fff"/>
      <path id="Path_1443" data-name="Path 1443" d="M387.947,963.75h-4.839a5.905,5.905,0,0,1-6.466-6.466V943.393a5.879,5.879,0,0,1,6.466-6.466h4.839a5.9,5.9,0,0,1,6.466,6.466v2a.664.664,0,0,1-.751.751h-2.628q-.71,0-.709-.751v-1.836q0-3.086-3-3.087h-3.629q-3,0-3,3.087v13.557q0,3.088,3,3.087h3.629q3,0,3-3.087v-1.835q0-.751.709-.751h2.628a.664.664,0,0,1,.751.751v2a5.931,5.931,0,0,1-6.466,6.466Z" transform="translate(-298.554 -936.927)" fill="#fff"/>
      <path id="Path_1444" data-name="Path 1444" d="M482.352,963.75h-2.628a.626.626,0,0,1-.709-.709v-25.4a.627.627,0,0,1,.709-.709h2.628a.627.627,0,0,1,.709.709v10.428q0,.418.5.417h8.8a.369.369,0,0,0,.417-.417V937.636a.627.627,0,0,1,.709-.709h2.67a.627.627,0,0,1,.709.709v25.4a.627.627,0,0,1-.709.709h-2.67a.626.626,0,0,1-.709-.709V952.487a.369.369,0,0,0-.417-.417h-8.8q-.5,0-.5.417v10.554A.627.627,0,0,1,482.352,963.75Z" transform="translate(-379.653 -936.927)" fill="#fff"/>
      <path id="Path_1445" data-name="Path 1445" d="M580.049,963.75h-3q-.584,0-.417-.709l7.258-25.4a.936.936,0,0,1,1-.709h4.171a.9.9,0,0,1,1,.709l7.258,25.4q.167.71-.459.709H593.9a.729.729,0,0,1-.522-.146,1.133,1.133,0,0,1-.229-.563l-1.585-5.423h-9.177l-1.585,5.423Q580.632,963.75,580.049,963.75Zm6.841-22.818-3.671,13.349h7.55l-3.713-13.349Z" transform="translate(-456.952 -936.927)" fill="#fff"/>
      <path id="Path_1446" data-name="Path 1446" d="M691.47,963.75h-2.586a.626.626,0,0,1-.709-.709v-25.4a.627.627,0,0,1,.709-.709h2.336a.952.952,0,0,1,.918.459l10.095,18.146h.167v-17.9a.627.627,0,0,1,.709-.709h2.586a.627.627,0,0,1,.709.709v25.4a.627.627,0,0,1-.709.709h-2.253a1.242,1.242,0,0,1-1.084-.668l-10.011-17.937h-.167v17.9A.627.627,0,0,1,691.47,963.75Z" transform="translate(-545.348 -936.927)" fill="#fff"/>
      <path id="Path_1447" data-name="Path 1447" d="M806.094,963.75h-4.464a5.905,5.905,0,0,1-6.466-6.466V943.393a5.879,5.879,0,0,1,6.466-6.466h4.464a5.879,5.879,0,0,1,6.466,6.466v1.5q0,.751-.709.751h-2.628q-.71,0-.709-.751v-1.335q0-3.086-3-3.087h-3.3q-3,0-3,3.087v13.557q0,3.088,3,3.087h3.3q3,0,3-3.087v-3.754c0-.277-.153-.417-.459-.417h-3.379a.626.626,0,0,1-.709-.709v-2.128a.627.627,0,0,1,.709-.709h7.008a.775.775,0,0,1,.876.876v7.008a5.931,5.931,0,0,1-6.466,6.466Z" transform="translate(-630.104 -936.927)" fill="#fff"/>
      <path id="Path_1448" data-name="Path 1448" d="M912.2,963.75H898.851a.626.626,0,0,1-.709-.709v-25.4a.627.627,0,0,1,.709-.709H912.2q.667,0,.667.709v2.127q0,.71-.667.709h-9.511q-.5,0-.5.417v7.05q0,.417.5.417h8.051q.751,0,.751.709v2.128q0,.71-.751.709h-8.051q-.5,0-.5.417v7.425q0,.459.5.459H912.2q.667,0,.667.709v2.128Q912.867,963.75,912.2,963.75Z" transform="translate(-711.682 -936.927)" fill="#fff"/>
    </g>
    <path id="Path_1449" data-name="Path 1449" d="M106.521,180.442H75.69L176.822,13h30.831Z" transform="translate(-60.143 -13)" fill="#d3b37f"/>
    <path id="Path_1450" data-name="Path 1450" d="M285.1,180.442H253.441L354.572,13h31.662Z" transform="translate(-200.955 -13)" fill="#d3b37f"/>
    <path id="Path_1451" data-name="Path 1451" d="M590.222,526.216l-46.348-76.738-34,55.374,12.9,21.364Z" transform="translate(-404.098 -358.774)" fill="#d3b37f"/>
    <path id="Path_1452" data-name="Path 1452" d="M162.116,32.666,150.239,13h-66.9l45.328,75.049Z" transform="translate(-66.202 -13)" fill="#d3b37f"/>
    <g id="Group_893" data-name="Group 893" transform="translate(17.415 1.054)">
      <path id="Path_1453" data-name="Path 1453" d="M84.68,183.407,184.538,18.073h28.368L113.048,183.407Z" transform="translate(-84.68 -18.073)" fill="url(#linear-gradient)"/>
      <path id="Path_1454" data-name="Path 1454" d="M262.434,183.407,362.291,18.073h29.2L291.633,183.407Z" transform="translate(-225.495 -18.073)" fill="url(#linear-gradient-2)"/>
      <path id="Path_1455" data-name="Path 1455" d="M528.076,532.888l-12.264-20.305,32.759-53.351,44.488,73.657Z" transform="translate(-426.219 -367.555)" fill="url(#linear-gradient-3)"/>
      <path id="Path_1456" data-name="Path 1456" d="M92.327,18.073h64.438l11.241,18.612L135.787,90.03Z" transform="translate(-90.738 -18.073)" fill="url(#linear-gradient-4)"/>
    </g>
  </g>
  <g id="Group_895" data-name="Group 895" transform="translate(177.592 144.322)">
    <path id="Path_1457" data-name="Path 1457" d="M858.823,707.492v.752h-1.251v3.518h-.864v-3.518h-1.241v-.752Zm1.576,0,1.3,2.715,1.3-2.715h1v4.271h-.783v-3.02l-1.23,2.583h-.57l-1.22-2.583v3.02H859.4v-4.271Z" transform="translate(-855.467 -707.492)" fill="#fff"/>
  </g>
</svg>
